<?xml version="1.0" encoding="UTF-8"?><svg id="Ebene_2" xmlns="http://www.w3.org/2000/svg" viewBox="0 0 262.61 262.66"><defs><style>.cls-1{fill:#603813;}</style></defs><g id="Ebene_1-2"><path class="cls-1" d="M175.68,101.73c-16.38-24.49-49.51-31.08-74-14.7-24.49,16.37-31.08,49.51-14.7,74s49.51,31.07,74,14.7c15.38-10.29,23.71-27.19,23.71-44.41,0-10.18-2.92-20.48-9.01-29.59ZM175.68,101.73c-16.38-24.49-49.51-31.08-74-14.7-24.49,16.37-31.08,49.51-14.7,74s49.51,31.07,74,14.7c15.38-10.29,23.71-27.19,23.71-44.41,0-10.18-2.92-20.48-9.01-29.59ZM175.68,101.73c-16.38-24.49-49.51-31.08-74-14.7-24.49,16.37-31.08,49.51-14.7,74s49.51,31.07,74,14.7c15.38-10.29,23.71-27.19,23.71-44.41,0-10.18-2.92-20.48-9.01-29.59ZM175.68,101.73c-16.38-24.49-49.51-31.08-74-14.7-24.49,16.37-31.08,49.51-14.7,74s49.51,31.07,74,14.7c15.38-10.29,23.71-27.19,23.71-44.41,0-10.18-2.92-20.48-9.01-29.59ZM175.68,101.73c-16.38-24.49-49.51-31.08-74-14.7-24.49,16.37-31.08,49.51-14.7,74s49.51,31.07,74,14.7c15.38-10.29,23.71-27.19,23.71-44.41,0-10.18-2.92-20.48-9.01-29.59ZM262.38,131.23c0-3.3,0-7.1.1-11.4.3-25.5.7-64.9-6.5-83-1.35-3.45-3.05-6.72-5.06-9.8-2.02-3.08-4.34-5.95-6.94-8.6v.2c-5.2-5.2-11.5-9.3-18.4-12C207.48-.47,167.98-.17,142.48.13c-4.1,0-7.9.1-11.2.1s-7.2,0-11.4-.1C94.38-.17,55.08-.57,36.98,6.63c-6.9,2.7-13.1,6.8-18.4,12s-9.3,11.5-12,18.4C-.52,55.13-.12,94.73.08,120.23c0,4.1.1,7.9.1,11.1s0,7-.1,11.1c-.2,25.5-.6,65.1,6.5,83.2,2.7,6.9,6.8,13.1,12,18.4s11.5,9.3,18.4,12c18.1,7.1,57.6,6.8,83.1,6.5,4.1,0,7.9-.1,11.2-.1s7.2,0,11.4.1c25.5.3,64.8.7,82.9-6.5,6.9-2.7,13.1-6.8,18.4-12s9.3-11.5,12-18.4c7.2-18,6.8-57.4,6.5-83,0-4.2-.1-8.1-.1-11.4ZM199.48,176.93c-25.18,37.66-76.13,47.78-113.8,22.6-37.67-25.16-47.81-76.09-22.65-113.75,25.16-37.67,76.08-47.81,113.75-22.65h.1c37.67,25.18,47.78,76.13,22.6,113.8ZM234.38,53.13c-.9,2.3-2.4,4.4-4.1,6.2s-3.9,3.2-6.2,4.2-4.8,1.5-7.3,1.5c-1.9,0-3.78-.28-5.56-.81-1.79-.54-3.49-1.34-5.04-2.39h-.1c-3.1-2.1-5.6-5.1-7.1-8.6s-1.8-7.3-1.1-11.1c.7-3.8,2.6-7.1,5.2-9.8,2.6-2.7,6.1-4.5,9.8-5.2,3.7-.7,7.6-.4,11.1,1.1s6.5,3.9,8.6,7c2.1,3.1,3.2,6.8,3.2,10.6,0,2.5-.5,5-1.4,7.3ZM101.68,87.03c-24.49,16.37-31.08,49.51-14.7,74s49.51,31.07,74,14.7c15.38-10.29,23.71-27.19,23.71-44.41,0-10.18-2.92-20.48-9.01-29.59-16.38-24.49-49.51-31.08-74-14.7ZM175.68,101.73c-16.38-24.49-49.51-31.08-74-14.7-24.49,16.37-31.08,49.51-14.7,74s49.51,31.07,74,14.7c15.38-10.29,23.71-27.19,23.71-44.41,0-10.18-2.92-20.48-9.01-29.59ZM175.68,101.73c-16.38-24.49-49.51-31.08-74-14.7-24.49,16.37-31.08,49.51-14.7,74s49.51,31.07,74,14.7c15.38-10.29,23.71-27.19,23.71-44.41,0-10.18-2.92-20.48-9.01-29.59ZM175.68,101.73c-16.38-24.49-49.51-31.08-74-14.7-24.49,16.37-31.08,49.51-14.7,74s49.51,31.07,74,14.7c15.38-10.29,23.71-27.19,23.71-44.41,0-10.18-2.92-20.48-9.01-29.59ZM175.68,101.73c-16.38-24.49-49.51-31.08-74-14.7-24.49,16.37-31.08,49.51-14.7,74s49.51,31.07,74,14.7c15.38-10.29,23.71-27.19,23.71-44.41,0-10.18-2.92-20.48-9.01-29.59ZM175.68,101.73c-16.38-24.49-49.51-31.08-74-14.7-24.49,16.37-31.08,49.51-14.7,74s49.51,31.07,74,14.7c15.38-10.29,23.71-27.19,23.71-44.41,0-10.18-2.92-20.48-9.01-29.59ZM175.68,101.73c-16.38-24.49-49.51-31.08-74-14.7-24.49,16.37-31.08,49.51-14.7,74s49.51,31.07,74,14.7c15.38-10.29,23.71-27.19,23.71-44.41,0-10.18-2.92-20.48-9.01-29.59ZM175.68,101.73c-16.38-24.49-49.51-31.08-74-14.7-24.49,16.37-31.08,49.51-14.7,74s49.51,31.07,74,14.7c15.38-10.29,23.71-27.19,23.71-44.41,0-10.18-2.92-20.48-9.01-29.59ZM262.38,131.23c0-3.3,0-7.1.1-11.4.3-25.5.7-64.9-6.5-83-1.35-3.45-3.05-6.72-5.06-9.8-2.02-3.08-4.34-5.95-6.94-8.6v.2c-5.2-5.2-11.5-9.3-18.4-12C207.48-.47,167.98-.17,142.48.13c-4.1,0-7.9.1-11.2.1s-7.2,0-11.4-.1C94.38-.17,55.08-.57,36.98,6.63c-6.9,2.7-13.1,6.8-18.4,12s-9.3,11.5-12,18.4C-.52,55.13-.12,94.73.08,120.23c0,4.1.1,7.9.1,11.1s0,7-.1,11.1c-.2,25.5-.6,65.1,6.5,83.2,2.7,6.9,6.8,13.1,12,18.4s11.5,9.3,18.4,12c18.1,7.1,57.6,6.8,83.1,6.5,4.1,0,7.9-.1,11.2-.1s7.2,0,11.4.1c25.5.3,64.8.7,82.9-6.5,6.9-2.7,13.1-6.8,18.4-12s9.3-11.5,12-18.4c7.2-18,6.8-57.4,6.5-83,0-4.2-.1-8.1-.1-11.4ZM199.48,176.93c-25.18,37.66-76.13,47.78-113.8,22.6-37.67-25.16-47.81-76.09-22.65-113.75,25.16-37.67,76.08-47.81,113.75-22.65h.1c37.67,25.18,47.78,76.13,22.6,113.8ZM234.38,53.13c-.9,2.3-2.4,4.4-4.1,6.2s-3.9,3.2-6.2,4.2-4.8,1.5-7.3,1.5c-1.9,0-3.78-.28-5.56-.81-1.79-.54-3.49-1.34-5.04-2.39h-.1c-3.1-2.1-5.6-5.1-7.1-8.6s-1.8-7.3-1.1-11.1c.7-3.8,2.6-7.1,5.2-9.8,2.6-2.7,6.1-4.5,9.8-5.2,3.7-.7,7.6-.4,11.1,1.1s6.5,3.9,8.6,7c2.1,3.1,3.2,6.8,3.2,10.6,0,2.5-.5,5-1.4,7.3ZM101.68,87.03c-24.49,16.37-31.08,49.51-14.7,74s49.51,31.07,74,14.7c15.38-10.29,23.71-27.19,23.71-44.41,0-10.18-2.92-20.48-9.01-29.59-16.38-24.49-49.51-31.08-74-14.7ZM175.68,101.73c-16.38-24.49-49.51-31.08-74-14.7-24.49,16.37-31.08,49.51-14.7,74s49.51,31.07,74,14.7c15.38-10.29,23.71-27.19,23.71-44.41,0-10.18-2.92-20.48-9.01-29.59ZM175.68,101.73c-16.38-24.49-49.51-31.08-74-14.7-24.49,16.37-31.08,49.51-14.7,74s49.51,31.07,74,14.7c15.38-10.29,23.71-27.19,23.71-44.41,0-10.18-2.92-20.48-9.01-29.59ZM175.68,101.73c-16.38-24.49-49.51-31.08-74-14.7-24.49,16.37-31.08,49.51-14.7,74s49.51,31.07,74,14.7c15.38-10.29,23.71-27.19,23.71-44.41,0-10.18-2.92-20.48-9.01-29.59ZM175.68,101.73c-16.38-24.49-49.51-31.08-74-14.7-24.49,16.37-31.08,49.51-14.7,74s49.51,31.07,74,14.7c15.38-10.29,23.71-27.19,23.71-44.41,0-10.18-2.92-20.48-9.01-29.59ZM262.38,131.23c0-3.3,0-7.1.1-11.4.3-25.5.7-64.9-6.5-83-1.35-3.45-3.05-6.72-5.06-9.8-2.02-3.08-4.34-5.95-6.94-8.6v.2c-5.2-5.2-11.5-9.3-18.4-12C207.48-.47,167.98-.17,142.48.13c-4.1,0-7.9.1-11.2.1s-7.2,0-11.4-.1C94.38-.17,55.08-.57,36.98,6.63c-6.9,2.7-13.1,6.8-18.4,12s-9.3,11.5-12,18.4C-.52,55.13-.12,94.73.08,120.23c0,4.1.1,7.9.1,11.1s0,7-.1,11.1c-.2,25.5-.6,65.1,6.5,83.2,2.7,6.9,6.8,13.1,12,18.4s11.5,9.3,18.4,12c18.1,7.1,57.6,6.8,83.1,6.5,4.1,0,7.9-.1,11.2-.1s7.2,0,11.4.1c25.5.3,64.8.7,82.9-6.5,6.9-2.7,13.1-6.8,18.4-12s9.3-11.5,12-18.4c7.2-18,6.8-57.4,6.5-83,0-4.2-.1-8.1-.1-11.4ZM199.48,176.93c-25.18,37.66-76.13,47.78-113.8,22.6-37.67-25.16-47.81-76.09-22.65-113.75,25.16-37.67,76.08-47.81,113.75-22.65h.1c37.67,25.18,47.78,76.13,22.6,113.8ZM234.38,53.13c-.9,2.3-2.4,4.4-4.1,6.2s-3.9,3.2-6.2,4.2-4.8,1.5-7.3,1.5c-1.9,0-3.78-.28-5.56-.81-1.79-.54-3.49-1.34-5.04-2.39h-.1c-3.1-2.1-5.6-5.1-7.1-8.6s-1.8-7.3-1.1-11.1c.7-3.8,2.6-7.1,5.2-9.8,2.6-2.7,6.1-4.5,9.8-5.2,3.7-.7,7.6-.4,11.1,1.1s6.5,3.9,8.6,7c2.1,3.1,3.2,6.8,3.2,10.6,0,2.5-.5,5-1.4,7.3ZM101.68,87.03c-24.49,16.37-31.08,49.51-14.7,74s49.51,31.07,74,14.7c15.38-10.29,23.71-27.19,23.71-44.41,0-10.18-2.92-20.48-9.01-29.59-16.38-24.49-49.51-31.08-74-14.7ZM175.68,101.73c-16.38-24.49-49.51-31.08-74-14.7-24.49,16.37-31.08,49.51-14.7,74s49.51,31.07,74,14.7c15.38-10.29,23.71-27.19,23.71-44.41,0-10.18-2.92-20.48-9.01-29.59ZM175.68,101.73c-16.38-24.49-49.51-31.08-74-14.7-24.49,16.37-31.08,49.51-14.7,74s49.51,31.07,74,14.7c15.38-10.29,23.71-27.19,23.71-44.41,0-10.18-2.92-20.48-9.01-29.59ZM175.68,101.73c-16.38-24.49-49.51-31.08-74-14.7-24.49,16.37-31.08,49.51-14.7,74s49.51,31.07,74,14.7c15.38-10.29,23.71-27.19,23.71-44.41,0-10.18-2.92-20.48-9.01-29.59ZM175.68,101.73c-16.38-24.49-49.51-31.08-74-14.7-24.49,16.37-31.08,49.51-14.7,74s49.51,31.07,74,14.7c15.38-10.29,23.71-27.19,23.71-44.41,0-10.18-2.92-20.48-9.01-29.59ZM262.38,131.23c0-3.3,0-7.1.1-11.4.3-25.5.7-64.9-6.5-83-1.35-3.45-3.05-6.72-5.06-9.8-2.02-3.08-4.34-5.95-6.94-8.6v.2c-5.2-5.2-11.5-9.3-18.4-12C207.48-.47,167.98-.17,142.48.13c-4.1,0-7.9.1-11.2.1s-7.2,0-11.4-.1C94.38-.17,55.08-.57,36.98,6.63c-6.9,2.7-13.1,6.8-18.4,12s-9.3,11.5-12,18.4C-.52,55.13-.12,94.73.08,120.23c0,4.1.1,7.9.1,11.1s0,7-.1,11.1c-.2,25.5-.6,65.1,6.5,83.2,2.7,6.9,6.8,13.1,12,18.4s11.5,9.3,18.4,12c18.1,7.1,57.6,6.8,83.1,6.5,4.1,0,7.9-.1,11.2-.1s7.2,0,11.4.1c25.5.3,64.8.7,82.9-6.5,6.9-2.7,13.1-6.8,18.4-12s9.3-11.5,12-18.4c7.2-18,6.8-57.4,6.5-83,0-4.2-.1-8.1-.1-11.4ZM199.48,176.93c-25.18,37.66-76.13,47.78-113.8,22.6-37.67-25.16-47.81-76.09-22.65-113.75,25.16-37.67,76.08-47.81,113.75-22.65h.1c37.67,25.18,47.78,76.13,22.6,113.8ZM234.38,53.13c-.9,2.3-2.4,4.4-4.1,6.2s-3.9,3.2-6.2,4.2-4.8,1.5-7.3,1.5c-1.9,0-3.78-.28-5.56-.81-1.79-.54-3.49-1.34-5.04-2.39h-.1c-3.1-2.1-5.6-5.1-7.1-8.6s-1.8-7.3-1.1-11.1c.7-3.8,2.6-7.1,5.2-9.8,2.6-2.7,6.1-4.5,9.8-5.2,3.7-.7,7.6-.4,11.1,1.1s6.5,3.9,8.6,7c2.1,3.1,3.2,6.8,3.2,10.6,0,2.5-.5,5-1.4,7.3ZM101.68,87.03c-24.49,16.37-31.08,49.51-14.7,74s49.51,31.07,74,14.7c15.38-10.29,23.71-27.19,23.71-44.41,0-10.18-2.92-20.48-9.01-29.59-16.38-24.49-49.51-31.08-74-14.7ZM175.68,101.73c-16.38-24.49-49.51-31.08-74-14.7-24.49,16.37-31.08,49.51-14.7,74s49.51,31.07,74,14.7c15.38-10.29,23.71-27.19,23.71-44.41,0-10.18-2.92-20.48-9.01-29.59ZM175.68,101.73c-16.38-24.49-49.51-31.08-74-14.7-24.49,16.37-31.08,49.51-14.7,74s49.51,31.07,74,14.7c15.38-10.29,23.71-27.19,23.71-44.41,0-10.18-2.92-20.48-9.01-29.59ZM262.38,131.23c0-3.3,0-7.1.1-11.4.3-25.5.7-64.9-6.5-83-1.35-3.45-3.05-6.72-5.06-9.8-2.02-3.08-4.34-5.95-6.94-8.6v.2c-5.2-5.2-11.5-9.3-18.4-12C207.48-.47,167.98-.17,142.48.13c-4.1,0-7.9.1-11.2.1s-7.2,0-11.4-.1C94.38-.17,55.08-.57,36.98,6.63c-6.9,2.7-13.1,6.8-18.4,12s-9.3,11.5-12,18.4C-.52,55.13-.12,94.73.08,120.23c0,4.1.1,7.9.1,11.1s0,7-.1,11.1c-.2,25.5-.6,65.1,6.5,83.2,2.7,6.9,6.8,13.1,12,18.4s11.5,9.3,18.4,12c18.1,7.1,57.6,6.8,83.1,6.5,4.1,0,7.9-.1,11.2-.1s7.2,0,11.4.1c25.5.3,64.8.7,82.9-6.5,6.9-2.7,13.1-6.8,18.4-12s9.3-11.5,12-18.4c7.2-18,6.8-57.4,6.5-83,0-4.2-.1-8.1-.1-11.4ZM199.48,176.93c-25.18,37.66-76.13,47.78-113.8,22.6-37.67-25.16-47.81-76.09-22.65-113.75,25.16-37.67,76.08-47.81,113.75-22.65h.1c37.67,25.18,47.78,76.13,22.6,113.8ZM234.38,53.13c-.9,2.3-2.4,4.4-4.1,6.2s-3.9,3.2-6.2,4.2-4.8,1.5-7.3,1.5c-1.9,0-3.78-.28-5.56-.81-1.79-.54-3.49-1.34-5.04-2.39h-.1c-3.1-2.1-5.6-5.1-7.1-8.6s-1.8-7.3-1.1-11.1c.7-3.8,2.6-7.1,5.2-9.8,2.6-2.7,6.1-4.5,9.8-5.2,3.7-.7,7.6-.4,11.1,1.1s6.5,3.9,8.6,7c2.1,3.1,3.2,6.8,3.2,10.6,0,2.5-.5,5-1.4,7.3ZM101.68,87.03c-24.49,16.37-31.08,49.51-14.7,74s49.51,31.07,74,14.7c15.38-10.29,23.71-27.19,23.71-44.41,0-10.18-2.92-20.48-9.01-29.59-16.38-24.49-49.51-31.08-74-14.7ZM175.68,101.73c-16.38-24.49-49.51-31.08-74-14.7-24.49,16.37-31.08,49.51-14.7,74s49.51,31.07,74,14.7c15.38-10.29,23.71-27.19,23.71-44.41,0-10.18-2.92-20.48-9.01-29.59ZM175.68,101.73c-16.38-24.49-49.51-31.08-74-14.7-24.49,16.37-31.08,49.51-14.7,74s49.51,31.07,74,14.7c15.38-10.29,23.71-27.19,23.71-44.41,0-10.18-2.92-20.48-9.01-29.59ZM262.38,131.23c0-3.3,0-7.1.1-11.4.3-25.5.7-64.9-6.5-83-1.35-3.45-3.05-6.72-5.06-9.8-2.02-3.08-4.34-5.95-6.94-8.6v.2c-5.2-5.2-11.5-9.3-18.4-12C207.48-.47,167.98-.17,142.48.13c-4.1,0-7.9.1-11.2.1s-7.2,0-11.4-.1C94.38-.17,55.08-.57,36.98,6.63c-6.9,2.7-13.1,6.8-18.4,12s-9.3,11.5-12,18.4C-.52,55.13-.12,94.73.08,120.23c0,4.1.1,7.9.1,11.1s0,7-.1,11.1c-.2,25.5-.6,65.1,6.5,83.2,2.7,6.9,6.8,13.1,12,18.4s11.5,9.3,18.4,12c18.1,7.1,57.6,6.8,83.1,6.5,4.1,0,7.9-.1,11.2-.1s7.2,0,11.4.1c25.5.3,64.8.7,82.9-6.5,6.9-2.7,13.1-6.8,18.4-12s9.3-11.5,12-18.4c7.2-18,6.8-57.4,6.5-83,0-4.2-.1-8.1-.1-11.4ZM199.48,176.93c-25.18,37.66-76.13,47.78-113.8,22.6-37.67-25.16-47.81-76.09-22.65-113.75,25.16-37.67,76.08-47.81,113.75-22.65h.1c37.67,25.18,47.78,76.13,22.6,113.8ZM234.38,53.13c-.9,2.3-2.4,4.4-4.1,6.2s-3.9,3.2-6.2,4.2-4.8,1.5-7.3,1.5c-1.9,0-3.78-.28-5.56-.81-1.79-.54-3.49-1.34-5.04-2.39h-.1c-3.1-2.1-5.6-5.1-7.1-8.6s-1.8-7.3-1.1-11.1c.7-3.8,2.6-7.1,5.2-9.8,2.6-2.7,6.1-4.5,9.8-5.2,3.7-.7,7.6-.4,11.1,1.1s6.5,3.9,8.6,7c2.1,3.1,3.2,6.8,3.2,10.6,0,2.5-.5,5-1.4,7.3ZM101.68,87.03c-24.49,16.37-31.08,49.51-14.7,74s49.51,31.07,74,14.7c15.38-10.29,23.71-27.19,23.71-44.41,0-10.18-2.92-20.48-9.01-29.59-16.38-24.49-49.51-31.08-74-14.7ZM175.68,101.73c-16.38-24.49-49.51-31.08-74-14.7-24.49,16.37-31.08,49.51-14.7,74s49.51,31.07,74,14.7c15.38-10.29,23.71-27.19,23.71-44.41,0-10.18-2.92-20.48-9.01-29.59ZM175.68,101.73c-16.38-24.49-49.51-31.08-74-14.7-24.49,16.37-31.08,49.51-14.7,74s49.51,31.07,74,14.7c15.38-10.29,23.71-27.19,23.71-44.41,0-10.18-2.92-20.48-9.01-29.59ZM175.68,101.73c-16.38-24.49-49.51-31.08-74-14.7-24.49,16.37-31.08,49.51-14.7,74s49.51,31.07,74,14.7c15.38-10.29,23.71-27.19,23.71-44.41,0-10.18-2.92-20.48-9.01-29.59ZM175.68,101.73c-16.38-24.49-49.51-31.08-74-14.7-24.49,16.37-31.08,49.51-14.7,74s49.51,31.07,74,14.7c15.38-10.29,23.71-27.19,23.71-44.41,0-10.18-2.92-20.48-9.01-29.59ZM175.68,101.73c-16.38-24.49-49.51-31.08-74-14.7-24.49,16.37-31.08,49.51-14.7,74s49.51,31.07,74,14.7c15.38-10.29,23.71-27.19,23.71-44.41,0-10.18-2.92-20.48-9.01-29.59ZM175.68,101.73c-16.38-24.49-49.51-31.08-74-14.7-24.49,16.37-31.08,49.51-14.7,74s49.51,31.07,74,14.7c15.38-10.29,23.71-27.19,23.71-44.41,0-10.18-2.92-20.48-9.01-29.59ZM262.38,131.23c0-3.3,0-7.1.1-11.4.3-25.5.7-64.9-6.5-83-1.35-3.45-3.05-6.72-5.06-9.8-2.02-3.08-4.34-5.95-6.94-8.6v.2c-5.2-5.2-11.5-9.3-18.4-12C207.48-.47,167.98-.17,142.48.13c-4.1,0-7.9.1-11.2.1s-7.2,0-11.4-.1C94.38-.17,55.08-.57,36.98,6.63c-6.9,2.7-13.1,6.8-18.4,12s-9.3,11.5-12,18.4C-.52,55.13-.12,94.73.08,120.23c0,4.1.1,7.9.1,11.1s0,7-.1,11.1c-.2,25.5-.6,65.1,6.5,83.2,2.7,6.9,6.8,13.1,12,18.4s11.5,9.3,18.4,12c18.1,7.1,57.6,6.8,83.1,6.5,4.1,0,7.9-.1,11.2-.1s7.2,0,11.4.1c25.5.3,64.8.7,82.9-6.5,6.9-2.7,13.1-6.8,18.4-12s9.3-11.5,12-18.4c7.2-18,6.8-57.4,6.5-83,0-4.2-.1-8.1-.1-11.4ZM199.48,176.93c-25.18,37.66-76.13,47.78-113.8,22.6-37.67-25.16-47.81-76.09-22.65-113.75,25.16-37.67,76.08-47.81,113.75-22.65h.1c37.67,25.18,47.78,76.13,22.6,113.8ZM234.38,53.13c-.9,2.3-2.4,4.4-4.1,6.2s-3.9,3.2-6.2,4.2-4.8,1.5-7.3,1.5c-1.9,0-3.78-.28-5.56-.81-1.79-.54-3.49-1.34-5.04-2.39h-.1c-3.1-2.1-5.6-5.1-7.1-8.6s-1.8-7.3-1.1-11.1c.7-3.8,2.6-7.1,5.2-9.8,2.6-2.7,6.1-4.5,9.8-5.2,3.7-.7,7.6-.4,11.1,1.1s6.5,3.9,8.6,7c2.1,3.1,3.2,6.8,3.2,10.6,0,2.5-.5,5-1.4,7.3ZM101.68,87.03c-24.49,16.37-31.08,49.51-14.7,74s49.51,31.07,74,14.7c15.38-10.29,23.71-27.19,23.71-44.41,0-10.18-2.92-20.48-9.01-29.59-16.38-24.49-49.51-31.08-74-14.7ZM175.68,101.73c-16.38-24.49-49.51-31.08-74-14.7-24.49,16.37-31.08,49.51-14.7,74s49.51,31.07,74,14.7c15.38-10.29,23.71-27.19,23.71-44.41,0-10.18-2.92-20.48-9.01-29.59ZM175.68,101.73c-16.38-24.49-49.51-31.08-74-14.7-24.49,16.37-31.08,49.51-14.7,74s49.51,31.07,74,14.7c15.38-10.29,23.71-27.19,23.71-44.41,0-10.18-2.92-20.48-9.01-29.59Z"/></g></svg>