<?xml version="1.0" encoding="UTF-8"?><svg id="Ebene_2" xmlns="http://www.w3.org/2000/svg" xmlns:xlink="http://www.w3.org/1999/xlink" viewBox="0 0 1022.5 930.15"><defs><style>.cls-1{fill:url(#Unbenannter_Verlauf_11-6);}.cls-2{stroke:#006837;stroke-width:5.28px;}.cls-2,.cls-3{fill:none;stroke-miterlimit:10;}.cls-4{fill:url(#Unbenannter_Verlauf_12-3);}.cls-5{fill:#0071bc;}.cls-6{fill:url(#Unbenannter_Verlauf_11-4);}.cls-7{fill:url(#Unbenannter_Verlauf_12-10);}.cls-8{fill:url(#Unbenannter_Verlauf_3);}.cls-9{fill:url(#Unbenannter_Verlauf_15);}.cls-10{fill:#fff;}.cls-11{opacity:.4;}.cls-12{fill:url(#Unbenannter_Verlauf_12);}.cls-13{fill:url(#Unbenannter_Verlauf_12-9);}.cls-14{fill:url(#Unbenannter_Verlauf_27-2);}.cls-15{fill:url(#Unbenannter_Verlauf_12-5);}.cls-16{fill:url(#Unbenannter_Verlauf_11-7);}.cls-17{fill:url(#Unbenannter_Verlauf_3-2);}.cls-18{fill:url(#Unbenannter_Verlauf_12-4);}.cls-19{fill:url(#Unbenannter_Verlauf_11-8);}.cls-20{fill:#f2f2f2;}.cls-21{fill:url(#Unbenannter_Verlauf_15-3);}.cls-22{fill:url(#Unbenannter_Verlauf_15-6);}.cls-23{fill:url(#Unbenannter_Verlauf_15-5);}.cls-24{fill:url(#Unbenannter_Verlauf_17-2);}.cls-25{fill:url(#Unbenannter_Verlauf_15-2);}.cls-26{fill:#006837;}.cls-27{fill:url(#Unbenannter_Verlauf_15-8);}.cls-28{fill:url(#Unbenannter_Verlauf_27);}.cls-29{fill:url(#Unbenannter_Verlauf_12-8);}.cls-30{fill:#603813;}.cls-31{opacity:.2;}.cls-32{fill:url(#Unbenannter_Verlauf_11);}.cls-33{fill:url(#Unbenannter_Verlauf_12-6);}.cls-34{fill:url(#Unbenannter_Verlauf_17);}.cls-35{fill:#42210b;}.cls-36{fill:url(#Unbenannter_Verlauf_11-2);}.cls-37{fill:url(#Unbenannter_Verlauf_11-3);}.cls-38{fill:#f7931e;}.cls-39{fill:url(#Unbenannter_Verlauf_15-10);}.cls-40{fill:url(#Unbenannter_Verlauf_15-4);}.cls-41{fill:url(#Unbenannter_Verlauf_11-5);}.cls-42{fill:url(#Unbenannter_Verlauf_15-7);}.cls-43{fill:url(#Unbenannter_Verlauf_15-9);}.cls-44{fill:url(#Unbenannter_Verlauf_12-2);}.cls-45{fill:url(#Unbenannter_Verlauf_16-2);}.cls-3{stroke:#42210b;stroke-width:13.2px;}.cls-46{fill:url(#Unbenannter_Verlauf_2);}.cls-47{fill:url(#Unbenannter_Verlauf_16);}.cls-48{fill:url(#Unbenannter_Verlauf_12-7);}</style><linearGradient id="Unbenannter_Verlauf_15" x1="274.22" y1="646.2" x2="255.55" y2="623.53" gradientUnits="userSpaceOnUse"><stop offset="0" stop-color="#0071bc"/><stop offset="1" stop-color="#60c3ff"/></linearGradient><linearGradient id="Unbenannter_Verlauf_15-2" x1="277.76" y1="646.64" x2="300.1" y2="622.53" xlink:href="#Unbenannter_Verlauf_15"/><linearGradient id="Unbenannter_Verlauf_15-3" x1="269.06" y1="648.62" x2="244.95" y2="659.51" xlink:href="#Unbenannter_Verlauf_15"/><linearGradient id="Unbenannter_Verlauf_15-4" x1="276.98" y1="651.95" x2="275.76" y2="679.39" xlink:href="#Unbenannter_Verlauf_15"/><linearGradient id="Unbenannter_Verlauf_15-5" x1="280.92" y1="649.47" x2="305.04" y2="661.14" xlink:href="#Unbenannter_Verlauf_15"/><linearGradient id="Unbenannter_Verlauf_16" x1="259.87" y1="662.53" x2="291.43" y2="634.08" gradientUnits="userSpaceOnUse"><stop offset="0" stop-color="#0071bc"/><stop offset=".5" stop-color="#f2f2f2"/><stop offset="1" stop-color="#0071bc"/></linearGradient><linearGradient id="Unbenannter_Verlauf_11" x1="306.14" y1="498.08" x2="287.47" y2="475.41" gradientTransform="translate(73.49 116.17) rotate(3.69)" gradientUnits="userSpaceOnUse"><stop offset="0" stop-color="#d9e021"/><stop offset="1" stop-color="#fcee21"/></linearGradient><linearGradient id="Unbenannter_Verlauf_11-2" x1="309.68" y1="498.52" x2="332.02" y2="474.41" xlink:href="#Unbenannter_Verlauf_11"/><linearGradient id="Unbenannter_Verlauf_11-3" x1="300.98" y1="500.51" x2="276.87" y2="511.4" xlink:href="#Unbenannter_Verlauf_11"/><linearGradient id="Unbenannter_Verlauf_3" x1="308.9" y1="503.83" x2="307.68" y2="531.27" gradientTransform="translate(73.49 116.17) rotate(3.69)" gradientUnits="userSpaceOnUse"><stop offset="0" stop-color="#fcee21"/><stop offset="1" stop-color="#d9e021"/></linearGradient><linearGradient id="Unbenannter_Verlauf_11-4" x1="312.84" y1="501.35" x2="336.96" y2="513.02" xlink:href="#Unbenannter_Verlauf_11"/><linearGradient id="Unbenannter_Verlauf_27" x1="291.79" y1="514.41" x2="323.35" y2="485.96" gradientTransform="translate(73.49 116.17) rotate(3.69)" gradientUnits="userSpaceOnUse"><stop offset="0" stop-color="#39b54a"/><stop offset=".5" stop-color="#d9e021"/><stop offset="1" stop-color="#39b54a"/></linearGradient><linearGradient id="Unbenannter_Verlauf_15-6" x1="353.49" y1="2282.63" x2="335.28" y2="2260.52" gradientTransform="translate(-1310.52 -549.78) rotate(-50.16)" xlink:href="#Unbenannter_Verlauf_15"/><linearGradient id="Unbenannter_Verlauf_15-7" x1="356.94" y1="2283.06" x2="378.73" y2="2259.54" gradientTransform="translate(-1310.52 -549.78) rotate(-50.16)" xlink:href="#Unbenannter_Verlauf_15"/><linearGradient id="Unbenannter_Verlauf_15-8" x1="348.45" y1="2285" x2="324.93" y2="2295.62" gradientTransform="translate(-1310.52 -549.78) rotate(-50.16)" xlink:href="#Unbenannter_Verlauf_15"/><linearGradient id="Unbenannter_Verlauf_15-9" x1="356.18" y1="2288.24" x2="354.99" y2="2315.01" gradientTransform="translate(-1310.52 -549.78) rotate(-50.16)" xlink:href="#Unbenannter_Verlauf_15"/><linearGradient id="Unbenannter_Verlauf_15-10" x1="360.02" y1="2285.82" x2="383.55" y2="2297.2" gradientTransform="translate(-1310.52 -549.78) rotate(-50.16)" xlink:href="#Unbenannter_Verlauf_15"/><linearGradient id="Unbenannter_Verlauf_16-2" x1="339.48" y1="2298.56" x2="370.27" y2="2270.81" gradientTransform="translate(-1310.52 -549.78) rotate(-50.16)" xlink:href="#Unbenannter_Verlauf_16"/><linearGradient id="Unbenannter_Verlauf_12" x1="271.14" y1="-39.21" x2="254.06" y2="-59.95" gradientTransform="translate(339.11 588.73) rotate(21.56)" gradientUnits="userSpaceOnUse"><stop offset="0" stop-color="#f15a24"/><stop offset="1" stop-color="#ed1c24"/></linearGradient><linearGradient id="Unbenannter_Verlauf_12-2" x1="274.38" y1="-38.81" x2="294.81" y2="-60.87" xlink:href="#Unbenannter_Verlauf_12"/><linearGradient id="Unbenannter_Verlauf_12-3" x1="266.41" y1="-36.99" x2="244.35" y2="-27.03" xlink:href="#Unbenannter_Verlauf_12"/><linearGradient id="Unbenannter_Verlauf_12-4" x1="273.66" y1="-33.96" x2="272.54" y2="-8.85" xlink:href="#Unbenannter_Verlauf_12"/><linearGradient id="Unbenannter_Verlauf_12-5" x1="277.27" y1="-36.22" x2="299.33" y2="-25.55" xlink:href="#Unbenannter_Verlauf_12"/><linearGradient id="Unbenannter_Verlauf_17" x1="258.01" y1="-24.28" x2="286.88" y2="-50.3" gradientTransform="translate(339.11 588.73) rotate(21.56)" gradientUnits="userSpaceOnUse"><stop offset="0" stop-color="#fbb03b"/><stop offset=".5" stop-color="#fcee21"/><stop offset="1" stop-color="#fbb03b"/></linearGradient><linearGradient id="Unbenannter_Verlauf_12-6" x1="-423.25" y1="-528.65" x2="-440.33" y2="-549.39" gradientTransform="translate(411.38 1305.2) rotate(41.09)" xlink:href="#Unbenannter_Verlauf_12"/><linearGradient id="Unbenannter_Verlauf_12-7" x1="-420.01" y1="-528.25" x2="-399.58" y2="-550.31" gradientTransform="translate(411.38 1305.2) rotate(41.09)" xlink:href="#Unbenannter_Verlauf_12"/><linearGradient id="Unbenannter_Verlauf_12-8" x1="-427.98" y1="-526.43" x2="-450.04" y2="-516.47" gradientTransform="translate(411.38 1305.2) rotate(41.09)" xlink:href="#Unbenannter_Verlauf_12"/><linearGradient id="Unbenannter_Verlauf_12-9" x1="-420.73" y1="-523.39" x2="-421.85" y2="-498.29" gradientTransform="translate(411.38 1305.2) rotate(41.09)" xlink:href="#Unbenannter_Verlauf_12"/><linearGradient id="Unbenannter_Verlauf_12-10" x1="-417.12" y1="-525.66" x2="-395.06" y2="-514.99" gradientTransform="translate(411.38 1305.2) rotate(41.09)" xlink:href="#Unbenannter_Verlauf_12"/><linearGradient id="Unbenannter_Verlauf_17-2" x1="-436.38" y1="-513.72" x2="-407.51" y2="-539.74" gradientTransform="translate(411.38 1305.2) rotate(41.09)" xlink:href="#Unbenannter_Verlauf_17"/><linearGradient id="Unbenannter_Verlauf_11-5" x1="174.39" y1="-380.4" x2="155.72" y2="-403.07" gradientTransform="translate(375.1 815.25) rotate(31.22)" xlink:href="#Unbenannter_Verlauf_11"/><linearGradient id="Unbenannter_Verlauf_11-6" x1="177.93" y1="-379.96" x2="200.26" y2="-404.07" gradientTransform="translate(375.1 815.25) rotate(31.22)" xlink:href="#Unbenannter_Verlauf_11"/><linearGradient id="Unbenannter_Verlauf_11-7" x1="169.22" y1="-377.97" x2="145.11" y2="-367.08" gradientTransform="translate(375.1 815.25) rotate(31.22)" xlink:href="#Unbenannter_Verlauf_11"/><linearGradient id="Unbenannter_Verlauf_3-2" x1="177.15" y1="-374.65" x2="175.92" y2="-347.2" gradientTransform="translate(375.1 815.25) rotate(31.22)" xlink:href="#Unbenannter_Verlauf_3"/><linearGradient id="Unbenannter_Verlauf_11-8" x1="181.09" y1="-377.13" x2="205.2" y2="-365.46" gradientTransform="translate(375.1 815.25) rotate(31.22)" xlink:href="#Unbenannter_Verlauf_11"/><linearGradient id="Unbenannter_Verlauf_27-2" x1="160.03" y1="-364.07" x2="191.59" y2="-392.52" gradientTransform="translate(375.1 815.25) rotate(31.22)" xlink:href="#Unbenannter_Verlauf_27"/><linearGradient id="Unbenannter_Verlauf_2" x1="653.09" y1="417.19" x2="757.69" y2="417.19" gradientUnits="userSpaceOnUse"><stop offset="0" stop-color="#f10c00"/><stop offset=".47" stop-color="#e75356"/><stop offset="1" stop-color="#f10c00"/></linearGradient></defs><g id="Ebene_1-2"><ellipse class="cls-10" cx="511.25" cy="465.07" rx="511.25" ry="465.07"/><polygon class="cls-30" points="493.27 549.95 493.86 514.82 496.06 491.17 513.59 487.68 527.1 490.52 531.61 514.86 529.95 540.2 529.95 546.37 493.27 549.95"/><path class="cls-26" d="M508.27,572.7c-48.79-27.02-51.89-74.12-51.89-74.12,14.72,7.62,33.3,2.77,33.3,2.77-43.37-24.24-57.31-74.12-57.31-74.12,14.72,11.78,40.27,11.08,40.27,11.08-30.98-24.24-43.48-61.52-43.48-61.52,18.67,4.44,45.81-2.21,45.81-2.21-46.47-20.09-57.31-56.11-57.31-56.11,13.94,11.08,37.18,10.39,37.18,10.39-24.01-18.01-26.33-43.64-26.33-43.64,17.04,5.54,37.95,0,37.95,0-68.93-26.32-87.52-76.89-87.52-76.89,0,0-18.59,50.57-87.52,76.89,0,0,20.91,5.54,37.95,0,0,0-2.32,25.63-26.33,43.64,0,0,23.24.69,37.18-10.39,0,0-10.84,36.02-57.31,56.11,0,0,19.59,8.88,45.37,3.1,0,0-12.07,36.39-43.05,60.63,0,0,25.56.69,40.27-11.08,0,0-13.94,49.88-57.31,74.12,0,0,18.59,4.85,33.3-2.77,0,0-3.1,47.1-51.89,74.12,4.65.69,38.73,7.62,73.58-11.78,0,0-3.1,25.63-24.01,40.87,5.42,1.39,53.83-12.27,79.39-39.98,25.56,27.71,74.73,41.37,80.16,39.98-20.91-15.24-24.01-40.87-24.01-40.87,34.85,19.4,68.93,12.47,73.58,11.78Z"/><path class="cls-30" d="M438.42,554.18l-4.33-.43.67,20.43,2.31,27.69,38.84,35.96,2.07,5.1,56-5.86s92.89-11.54,92.51-12.5c-.38-.96-.17-51.92-.17-51.92v-1.54l-44.44-28.84-143.46,11.92Z"/><path class="cls-2" d="M292.48,695.17s-11.23-25.62-15.23-41.79"/><path class="cls-2" d="M363.28,686.82s-11.19-34.91-13.44-45.51"/><path class="cls-2" d="M599.95,710.05s14.67-23.67,9.17-49.5"/><path class="cls-2" d="M432.87,694.79s-3.1-24.5,3.69-49.56"/><path class="cls-2" d="M725.13,633.21s.33-29.5-3.17-41.34"/><path class="cls-26" d="M292.4,695.11s-19.22-12.54-43.04-5.85c-.42,2.09,12.95,20.06,34.26,24.24,0,0,7.94-3.34,8.77-18.39Z"/><path class="cls-26" d="M311.39,702.73s11.26-20,3.04-43.33c-2.11-.28-19.17,14.23-21.96,35.77,0,0,3.85,7.7,18.92,7.56Z"/><path class="cls-26" d="M363.21,686.76s-17.85-14.42-42.23-10.17c-.63,2.04,10.86,21.26,31.64,27.58,0,0,8.24-2.52,10.59-17.4Z"/><path class="cls-26" d="M381.34,696.26s13.22-18.75,7.41-42.8c-2.07-.49-20.51,12.22-25.46,33.36,0,0,3.05,8.06,18.06,9.44Z"/><path class="cls-26" d="M432.25,695.31s-7.47-21.7-30.38-31.04c-1.61,1.39-2.09,23.78,12.16,40.17,0,0,8.32,2.24,18.21-9.12Z"/><path class="cls-26" d="M446.04,708.92s18.26-13.9,19.94-38.58c-1.83-1.09-23.24,5.48-34.32,24.15,0,0,.49,8.6,14.38,14.43Z"/><path class="cls-26" d="M542.27,694.64s-7.47-21.7-30.38-31.04c-1.61,1.39-2.09,23.78,12.16,40.17,0,0,8.32,2.24,18.21-9.12Z"/><path class="cls-26" d="M548.72,704.92s18.26-13.9,19.94-38.58c-1.83-1.09-23.24,5.48-34.32,24.15,0,0,.49,8.6,14.38,14.43Z"/><path class="cls-26" d="M603.6,715.98s-7.47-21.7-30.38-31.04c-1.61,1.39-2.09,23.78,12.16,40.17,0,0,8.32,2.24,18.21-9.12Z"/><path class="cls-26" d="M604.4,730.65s22.39-5.02,34.22-26.75c-1.2-1.76-23.41-4.72-41.27,7.63,0,0-3.15,8.02,7.05,19.11Z"/><path class="cls-26" d="M688.46,694.8s-22.93-.83-39.89,17.18c.72,2.01,21.44,10.51,41.85,3.1,0,0,5.08-6.96-1.96-20.28Z"/><path class="cls-26" d="M704.92,693.33s17.66-14.65,18.33-39.38c-1.87-1.02-22.99,6.44-33.29,25.55,0,0,.84,8.57,14.96,13.82Z"/><path class="cls-26" d="M703.57,708.2s18.3,13.85,42.53,8.84c.56-2.05-11.52-20.91-32.49-26.57,0,0-8.15,2.78-10.04,17.73Z"/><path class="cls-26" d="M730.11,639.37s-11.24-20-35.45-25.09c-1.34,1.66,2.21,23.77,19.17,37.34,0,0,8.58.71,16.28-12.24Z"/><path class="cls-26" d="M738.15,650.94s18.35-13.77,20.22-38.44c-1.82-1.11-23.28,5.31-34.49,23.91,0,0,.43,8.6,14.28,14.53Z"/><path class="cls-9" d="M271.14,645.04s-11.56,6.22-22.22-6.45c-10.67-12.67,8.33-22.78,14.33-23.45,6-.67,14.56,9.89,13.89,21.67-.67,11.78-6,8.22-6,8.22Z"/><path class="cls-25" d="M277.92,642.11s-6.96-11.13,4.98-22.6c11.95-11.47,23.27,6.83,24.33,12.78,1.06,5.94-8.92,15.17-20.72,15.27-11.8.1-8.6-5.45-8.6-5.45Z"/><path class="cls-21" d="M266.63,650.2s3.79,12.57-10.76,20.49c-14.55,7.92-20.65-12.72-20.11-18.74.55-6.01,12.6-12.28,24.01-9.28,11.41,3.01,6.86,7.52,6.86,7.52Z"/><path class="cls-40" d="M277.64,654.4s12.88,2.53,13.08,19.09c.2,16.56-20.9,12.31-25.96,9.02-5.06-3.29-4.97-16.88,3.02-25.56,7.99-8.68,9.86-2.54,9.86-2.54Z"/><path class="cls-23" d="M282.12,649.76s7.12-11.03,22.58-5.08c15.46,5.95,3.7,23.97-1.24,27.45-4.93,3.48-17.52-1.64-22.62-12.27-5.1-10.64,1.29-10.1,1.29-10.1Z"/><circle class="cls-47" cx="275.75" cy="648.21" r="14.5"/><path class="cls-32" d="M343.95,631.56s-11.93,5.47-21.76-7.86c-9.83-13.33,9.78-22.2,15.81-22.48,6.03-.28,13.89,10.81,12.47,22.52-1.42,11.71-6.52,7.82-6.52,7.82Z"/><path class="cls-36" d="M350.9,629.06s-6.23-11.55,6.43-22.23c12.66-10.68,22.79,8.32,23.46,14.32.67,6-9.88,14.56-21.66,13.91-11.78-.66-8.23-5.99-8.23-5.99Z"/><path class="cls-37" d="M339.12,636.41s2.97,12.79-12.06,19.75c-15.03,6.97-19.79-14.02-18.86-19.99s13.37-11.45,24.56-7.71c11.19,3.74,6.36,7.95,6.36,7.95Z"/><path class="cls-8" d="M349.84,641.31s12.69,3.35,11.83,19.89c-.87,16.54-21.65,10.94-26.49,7.33-4.84-3.61-3.87-17.17,4.66-25.31s10-1.9,10-1.9Z"/><path class="cls-6" d="M354.6,636.97s7.81-10.55,22.86-3.62c15.04,6.93,2.15,24.16-3,27.32-5.15,3.16-17.38-2.76-21.79-13.7-4.41-10.94,1.93-9.99,1.93-9.99Z"/><circle class="cls-28" cx="348.35" cy="635.01" r="14.5"/><path class="cls-22" d="M665.87,642.69s-2.56,12.55-18.72,12.62c-16.16.07-11.85-20.48-8.6-25.39,3.25-4.91,16.5-4.72,24.91,3.14,8.41,7.86,2.41,9.63,2.41,9.63Z"/><path class="cls-42" d="M667.91,635.78s-12.69-1.74-13.81-17.85c-1.13-16.12,19.66-13.16,24.78-10.24,5.11,2.92,5.79,16.16-1.51,25.06-7.3,8.9-9.46,3.03-9.46,3.03Z"/><path class="cls-27" d="M666.91,649.29s11.78,5.02,8.62,20.86c-3.16,15.84-22.44,7.52-26.6,3.35-4.16-4.17-1.33-17.12,8.06-23.78,9.38-6.66,9.92-.43,9.92-.43Z"/><path class="cls-43" d="M676.94,643.66s9.94-8.07,22.47,2.13c12.53,10.2-3.84,23.35-9.47,25.08-5.63,1.73-15.75-6.83-17.26-18.24-1.51-11.41,4.25-8.97,4.25-8.97Z"/><path class="cls-39" d="M676.26,637.41s-3.81-12.22,10.3-20.09c14.11-7.86,20.27,12.21,19.79,18.08-.48,5.87-12.18,12.1-23.33,9.28-11.16-2.83-6.76-7.27-6.76-7.27Z"/><circle class="cls-45" cx="671.13" cy="641.21" r="14.15"/><path class="cls-38" d="M99.72,650.17c-6.91-3.64-11.56-9.49-13.98-17.57-3.23-10.81-2-19.78,3.67-26.92,3.2-3.96,6.8-6.65,10.79-8.06l4.05,13.57c-2.86,1.79-4.87,3.6-6.06,5.43-2.1,3.26-2.44,7.26-1.02,12.01,1.44,4.83,4.57,8.05,9.38,9.66,4.81,1.6,10.86,1.32,18.14-.86,7.28-2.17,12.3-5.28,15.05-9.3,2.75-4.03,3.45-8.31,2.09-12.85-1.39-4.65-4-7.74-7.85-9.25-2.08-.85-4.92-1.22-8.54-1.11l-4.02-13.48c7.43-.95,14.07.3,19.93,3.76,5.86,3.46,9.91,8.92,12.13,16.38,2.76,9.24,1.93,17.4-2.48,24.47-4.44,7.09-11.91,12.19-22.39,15.32-11.34,3.38-20.97,2.98-28.91-1.2Z"/><path class="cls-38" d="M142.06,576.34l-67.34,7.61-1.58-13.98,25.68-2.9-2.96-26.18-25.67,2.9-1.58-13.98,67.34-7.61,1.58,13.98-30.06,3.4,2.96,26.18,30.06-3.4,1.58,13.98Z"/><path class="cls-38" d="M83.22,457.95l-2.12,35.8,14.37.85,1.95-32.86,11.75.7-1.95,32.86,17.4,1.03,2.22-37.45,12.16.72-3.04,51.27-67.65-4.01,2.94-49.61,11.98.71Z"/><path class="cls-38" d="M74.45,436.61l3.04-13.83,54.29,11.93,7.26-33.05,11.9,2.62-10.3,46.88-66.19-14.55Z"/><path class="cls-38" d="M90.06,373.28l5.06-13.22,51.91,19.88,12.1-31.6,11.38,4.36-17.17,44.82-63.29-24.24Z"/><path class="cls-38" d="M150.33,275.13l-17.87,31.09,12.48,7.17,16.4-28.54,10.2,5.87-16.4,28.54,15.11,8.68,18.7-32.53,10.56,6.07-25.59,44.52-58.75-33.77,24.77-43.09,10.4,5.98Z"/><path class="cls-38" d="M151.96,252.15l8.88-11.03,43.29,34.87,21.23-26.35,9.49,7.64-30.11,37.38-52.78-42.51Z"/><path class="cls-38" d="M192.07,180.76l8.95-7.99,7.25,8.13-8.95,7.99-7.25-8.13ZM205.79,168.52l8.95-7.99,7.25,8.13-8.95,7.99-7.25-8.13ZM208.96,188.74l11.96-10.67,63.01,34.61-11.46,10.22-12.61-7.42-18.62,16.61,5.85,13.45-11.05,9.86-27.06-66.67ZM236.33,220.83l12.95-11.55-24.14-14.2,11.19,25.75Z"/><path class="cls-38" d="M253.33,151.93l12.66-7.76,47.63,26.23-24.7-40.29,11.25-6.9,35.42,57.78-12.07,7.4-48.65-26.58,25.13,41-11.25,6.9-35.42-57.78Z"/><path class="cls-38" d="M357.74,100.22c5-.28,9.63.98,13.89,3.78,3.43,2.27,6.26,5.08,8.5,8.42,2.23,3.34,4,6.66,5.3,9.97,3.3,8.39,4.4,16.15,3.32,23.3-1.49,9.64-7,16.33-16.53,20.08l-27.19,10.69-24.79-63.07,27.19-10.69c3.93-1.48,7.37-2.3,10.3-2.47ZM337.34,119.31l16.18,41.16,12.17-4.78c6.23-2.45,9.37-7.22,9.41-14.32.02-3.89-.88-8.17-2.71-12.82-2.52-6.42-5.47-10.95-8.83-13.6-3.37-2.65-8.05-2.79-14.05-.43l-12.17,4.78Z"/><path class="cls-38" d="M444.06,88.9l-35.12,7.28,2.92,14.09,32.23-6.68,2.39,11.53-32.23,6.68,3.54,17.06,36.74-7.62,2.47,11.93-50.29,10.43-13.76-66.36,48.67-10.09,2.44,11.75Z"/><path class="cls-38" d="M506.56,74.83c2.53.99,4.7,2.5,6.5,4.52,1.49,1.67,2.69,3.53,3.59,5.59.9,2.06,1.4,4.42,1.49,7.08.11,3.22-.6,6.41-2.12,9.57-1.52,3.16-4.13,5.45-7.83,6.86,3.17,1.15,5.44,2.87,6.82,5.14,1.38,2.27,2.14,5.78,2.3,10.53l.15,4.55c.1,3.09.29,5.19.58,6.28.43,1.73,1.34,2.99,2.74,3.78l.06,1.7-15.62.51c-.48-1.49-.82-2.69-1.04-3.6-.43-1.89-.69-3.83-.79-5.82l-.3-6.29c-.2-4.32-1.04-7.17-2.52-8.57-1.48-1.39-4.19-2.02-8.13-1.89l-13.82.45.87,26.56-13.83.46-2.23-67.73,32.4-1.06c4.63-.06,8.21.4,10.74,1.39ZM477.64,85.8l.6,18.2,15.23-.5c3.03-.1,5.28-.54,6.77-1.33,2.63-1.38,3.89-3.96,3.76-7.76-.13-4.1-1.52-6.82-4.16-8.14-1.48-.75-3.68-1.08-6.59-.98l-15.62.51Z"/><path class="cls-38" d="M568.77,120.69l-.3,1.53c-.89,5.17-1.07,8.89-.53,11.16.54,2.28,2.36,3.72,5.47,4.33,3.08.6,5.34-.14,6.77-2.24.86-1.24,1.6-3.47,2.23-6.68l9.1-46.52,13.9,2.72-9.06,46.29c-1.11,5.66-2.94,9.95-5.5,12.88-4.33,4.96-10.72,6.62-19.16,4.97-8.44-1.65-13.66-5.02-15.66-10.11-2-5.09-2.23-11.55-.7-19.37l.3-1.53,13.13,2.57Z"/><path class="cls-38" d="M655.61,166.58c-6.64,3.15-14.49,3.04-23.57-.34-9.08-3.38-15.09-8.43-18.05-15.16-4.18-8.46-4.14-18.39.1-29.79,4.33-11.63,10.8-19.17,19.41-22.6,6.64-3.15,14.49-3.04,23.57.34,9.08,3.38,15.09,8.43,18.05,15.16,4.23,8.22,4.19,18.14-.15,29.77-4.25,11.4-10.7,18.94-19.36,22.62ZM650.91,153.83c4.53-2.73,8.13-7.67,10.79-14.82,2.65-7.12,3.16-13.21,1.52-18.25-1.64-5.04-5.09-8.54-10.34-10.5-5.26-1.96-10.17-1.58-14.75,1.13-4.58,2.71-8.19,7.64-10.86,14.8-2.66,7.15-3.15,13.25-1.46,18.29,1.69,5.04,5.16,8.54,10.42,10.5,5.26,1.96,10.15,1.57,14.68-1.16Z"/><path class="cls-38" d="M738.21,143.29c3.28,3.78,5.11,8.22,5.49,13.31.29,4.11-.2,8.06-1.48,11.87-1.28,3.81-2.83,7.24-4.66,10.29-4.63,7.73-10.1,13.35-16.42,16.85-8.54,4.71-17.21,4.43-26-.83l-25.07-15.01,34.81-58.14,25.07,15.01c3.57,2.21,6.32,4.43,8.24,6.65ZM710.65,138.78l-22.72,37.95,11.22,6.72c5.74,3.44,11.44,3.01,17.09-1.29,3.09-2.36,5.93-5.69,8.49-9.97,3.54-5.92,5.33-11.02,5.38-15.3.04-4.28-2.7-8.08-8.24-11.39l-11.22-6.72Z"/><path class="cls-38" d="M799.83,204.69l-27.2-23.37-9.38,10.92,24.97,21.45-7.67,8.93-24.97-21.45-11.35,13.22,28.46,24.45-7.94,9.24-38.95-33.47,44.16-51.4,37.7,32.39-7.82,9.1Z"/><path class="cls-38" d="M822.12,210.63l9.16,10.8-42.39,35.96,21.89,25.8-9.29,7.88-31.05-36.61,51.68-43.84Z"/><path class="cls-38" d="M860.98,271.13c7.59,1.82,13.55,6.35,17.87,13.59,5.79,9.68,6.81,18.68,3.07,26.99-2.13,4.63-4.95,8.12-8.47,10.47l-7.27-12.16c2.33-2.44,3.84-4.69,4.54-6.75,1.23-3.67.58-7.64-1.97-11.89-2.59-4.33-6.41-6.68-11.47-7.05-5.06-.37-10.85,1.4-17.38,5.3-6.52,3.9-10.62,8.14-12.3,12.72-1.67,4.58-1.29,8.9,1.14,12.97,2.49,4.17,5.79,6.51,9.88,7.04,2.22.31,5.07-.03,8.55-1.02l7.22,12.08c-6.96,2.75-13.71,3.17-20.24,1.26-6.53-1.91-11.8-6.2-15.8-12.89-4.95-8.28-6.15-16.39-3.62-24.33,2.56-7.96,8.54-14.75,17.93-20.36,10.16-6.07,19.59-8.05,28.31-5.95Z"/><path class="cls-38" d="M837.73,353.08l63.07-24.79,5.15,13.09-24.05,9.45,9.63,24.52,24.05-9.45,5.15,13.09-63.07,24.79-5.15-13.09,28.16-11.06-9.64-24.52-28.16,11.06-5.15-13.09Z"/><path class="cls-38" d="M875.74,464.69c-6.1-4.1-10.02-10.91-11.75-20.44-1.73-9.53-.46-17.28,3.81-23.26,5.14-7.91,13.69-12.95,25.66-15.13,12.21-2.22,21.99-.51,29.34,5.14,6.1,4.09,10.02,10.91,11.75,20.44,1.73,9.53.46,17.28-3.81,23.26-4.9,7.84-13.46,12.86-25.67,15.08-11.97,2.17-21.75.48-29.34-5.09ZM884.29,454.14c4.66,2.5,10.74,3.07,18.25,1.71,7.48-1.36,12.97-4.03,16.47-8.01,3.5-3.98,4.75-8.73,3.74-14.25-1-5.52-3.84-9.55-8.5-12.1-4.67-2.55-10.76-3.14-18.27-1.78-7.51,1.36-13,4.06-16.48,8.08-3.47,4.03-4.71,8.8-3.71,14.32,1,5.52,3.83,9.53,8.49,12.03ZM948.76,413.4l2.14,11.81-10.72,1.95-2.14-11.81,10.72-1.95ZM952.05,431.49l2.14,11.81-10.72,1.95-2.14-11.81,10.72-1.95Z"/><path class="cls-38" d="M937.54,527.64c-1.09,2.49-2.68,4.6-4.77,6.32-1.73,1.42-3.63,2.55-5.72,3.37-2.09.83-4.47,1.23-7.13,1.21-3.22-.02-6.38-.85-9.48-2.49-3.1-1.64-5.29-4.34-6.55-8.08-1.28,3.12-3.07,5.32-5.39,6.61-2.32,1.29-5.86,1.92-10.61,1.89l-4.55-.03c-3.1-.02-5.2.09-6.3.34-1.75.36-3.04,1.23-3.88,2.59h-1.7s.09-15.64.09-15.64c1.5-.42,2.72-.72,3.64-.9,1.9-.36,3.85-.55,5.84-.56l6.3-.06c4.32-.03,7.21-.76,8.66-2.19,1.45-1.43,2.18-4.11,2.21-8.05l.08-13.83-26.57-.15.08-13.84,67.77.39-.19,32.41c-.12,4.63-.72,8.19-1.81,10.68ZM927.69,498.31l-18.21-.11-.09,15.24c-.02,3.03.34,5.3,1.06,6.82,1.27,2.69,3.81,4.04,7.61,4.06,4.11.02,6.87-1.26,8.3-3.84.81-1.45,1.22-3.63,1.23-6.54l.09-15.63Z"/><path class="cls-38" d="M936.79,560.64l-2.4,13.96-54.78-9.41-5.73,33.35-12.01-2.06,8.12-47.31,66.79,11.47Z"/><path class="cls-38" d="M855.5,616.23l3.87-13.52,65.15,18.66-3.87,13.53-65.15-18.66Z"/><path class="cls-38" d="M387.57,774.43c1.03,3.62.84,7.44-.6,11.45-1.48,4.14-3.71,7.09-6.68,8.86-1.67.99-3.84,1.67-6.52,2.03,2.99,2.49,4.88,5.4,5.66,8.76.78,3.35.47,6.98-.92,10.87-1.43,4.02-3.72,7.26-6.86,9.73-2.03,1.66-4.25,2.87-6.68,3.63-2.74.89-5.69,1.12-8.83.68-3.15-.43-6.43-1.26-9.86-2.48l-30.38-10.84,24.19-67.78,32.58,11.63c8.18,3.06,13.14,7.54,14.9,13.46ZM340,792.08l-6.45,18.07,16.37,5.84c2.92,1.04,5.34,1.46,7.25,1.24,3.48-.42,5.96-2.71,7.45-6.88,1.26-3.52.69-6.46-1.7-8.8-1.34-1.31-3.44-2.49-6.33-3.55l-16.6-5.92ZM349.34,765.91l-5.33,14.94,16.39,5.85c2.93,1.04,5.5,1.33,7.73.87,2.22-.47,3.85-2.13,4.86-4.98,1.13-3.16.66-5.67-1.39-7.55-1.83-1.45-4.36-2.75-7.59-3.9l-14.67-5.23Z"/><path class="cls-38" d="M423.68,774.77l16.65,3.05,11.96,75.35-15.96-2.92-1.98-15.4-25.93-4.75-7.44,13.68-15.39-2.82,38.1-66.19ZM414.65,818.63l18.04,3.3-3.8-29.48-14.24,26.18Z"/><path class="cls-38" d="M469.92,782.35l15.2.29-.85,44.19c-.09,4.94.42,8.56,1.53,10.86,1.73,4.07,5.62,6.16,11.69,6.28,6.03.12,9.99-1.82,11.87-5.82,1.2-2.25,1.86-5.85,1.95-10.79l.85-44.19,15.2.29-.85,44.23c-.15,7.65-1.44,13.58-3.88,17.8-4.55,7.73-13.01,11.47-25.39,11.23-12.38-.24-20.71-4.31-24.98-12.2-2.28-4.31-3.34-10.29-3.19-17.93l.85-44.23Z"/><path class="cls-38" d="M591.13,774.61l21.22-3.62,12.11,70.94-13.74,2.35-8.19-47.98c-.24-1.38-.55-3.32-.94-5.81-.39-2.49-.7-4.41-.93-5.76l-3.21,61.82-14.33,2.45-23.44-57.27c.23,1.35.57,3.26,1.03,5.74.46,2.48.8,4.41,1.04,5.79l8.19,47.98-13.74,2.35-12.11-70.94,21.46-3.66,22.37,53.59,3.23-57.96Z"/><path class="cls-38" d="M640.27,761.27l15.94-5.68,48.02,59.29-15.28,5.44-9.42-12.35-24.83,8.85.39,15.56-14.74,5.25-.08-76.37ZM654.37,803.77l17.27-6.15-18.02-23.64.75,29.79Z"/><g class="cls-31"><path d="M376.48,225.67c-10.06,19.71-23.89,38.49-42.6,50.81,0,0-1.3-5.1-1.3-5.1,2.48.02,5,.06,7.48.03,3.77.02,8.13-.32,11.84-.84,0,0-1.44,4.49-1.44,4.49-4.35,12.65-9.05,25.54-17.77,35.95,0,0-2.64-5.51-2.64-5.51,6.85-.61,14.23-1.5,20.5-4.41,0,0,4.45,4,4.45,4-.51,3.97-1.49,8.78-2.59,12.81-5.31,19.31-17.25,36.29-32.38,49.18,0,0-.73-2.22-.73-2.22,5.44.75,11.04,1,16.54.63,1.85-.12,3.69-.38,5.54-.68-7.17,2.33-14.84,2.93-22.37,2.61,0,0-2.65-.14-2.65-.14,4.58-5,9.46-10.06,13.36-15.6,9.5-12.85,16.21-27.97,18.49-43.83.33-1.98.24-2.75.87-5.12,0,0,4.45,4,4.45,4-3.72,1.92-7.54,2.95-11.51,3.78-6.01,1.3-13.47,1.74-19.66,2.18,0,0,5.47-6.11,5.47-6.11,5.98-7.01,9.87-15.97,13.47-24.47,1.21-2.94,2.39-5.96,3.43-8.91l3.21,3.94c-5.29.34-10.31,0-15.56-.26,0,0-9.03-.59-9.03-.59l7.74-4.51c18.71-11.11,33.01-28.46,45.41-46.09h0Z"/></g><g class="cls-31"><path class="cls-10" d="M401.37,352.35c1.36,17.52,5.01,35.01,13.11,50.65-5.86-.57-12-1-17.21-4.05,0,0,3.99-2.53,3.99-2.53,4.34,21.35,11.45,42.51,22.47,61.34,4.82,8.19,11.1,15.62,17.52,22.54,0,0-6.87.09-6.87.09-7.21-.09-14.05-.68-20.63-4.21,0,0,3.19-4.73,3.19-4.73.88.75,1.3,1.88,1.62,2.93,2.76,11.32,4.89,22.89,8.62,33.94,3.83,11.51,8.7,22.85,16.86,32.04-7.09-5.98-12.34-14-16.49-22.27-6.66-13.09-10.35-27.42-14.23-41.49-.1-.32-.29-.9-.43-1.17,0-.02-.02-.05-.02-.06.1.22.28.42.49.55,0,0,3.19-4.73,3.19-4.73,1.2.62,2.56,1.11,3.97,1.51,4.35,1.15,9.14,1.52,13.62,1.39,0,0-2.16,5.33-2.16,5.33-18.34-19.52-28.2-45.29-33.86-71.07-1.22-5.37-2.03-11.53-2.8-17.05,0,0,4.81,3.34,4.81,3.34,2.9,1.93,7.27,2.86,10.82,3.45,0,0-2.31,3.2-2.31,3.2-1.57-3.93-2.93-7.91-3.95-11.97-3.02-12.06-4.08-24.59-3.32-36.98h0Z"/></g><g class="cls-31"><path d="M351.59,452.36c-3.98,11.92-9.79,24.36-20.25,31.97,0,0-.2-3.6-.2-3.6,2.53.98,5.48,1.67,8.21,2.03,3.73.57,7.62.06,11.3-.55,0,0,.03,3.04.03,3.04-.14,14.02-3.74,28.07-11.06,40.1-1.43,2.38-3.47,5.06-5.18,7.22-.79.87-2.83,3.05-3.65,3.92,0,0-1.87-5.62-1.87-5.62,7.25.69,15.09-.22,21.5-3.85,0,0,4.71-2.55,4.71-2.55,0,0,.03,5.11.03,5.11-.27,14.56-3.21,31.08-14.16,41.56,0,0-1.69-3.46-1.69-3.46.32-.04,1.86-.76,2.4-1.07,9.33-5.59,18.23-12.28,25.45-20.48-1.55,2.64-3.44,5.09-5.45,7.41-5.63,6.38-11.91,12.32-19.09,16.94-.74.42-1.39.86-2.73,1.2,0,0-6.23,1.58-6.23,1.58,3.62-3.95,7.84-8.39,10-13.36,4.13-9.35,5.41-19.97,5.27-30.12,0,0,4.74,2.56,4.74,2.56-7.67,4.63-16.81,5.88-25.62,5.04,0,0-6.4-.72-6.4-.72l4.54-4.9c10.68-10.66,16.4-25.39,18.56-40.16.31-2.13.56-4.36.67-6.38l3.01,2.61c-7.86.91-15.62-1.38-22.5-5.11,3.64-1.97,7.24-4.33,10.17-7.41,6.45-6.63,11.33-14.74,15.51-22.98h0Z"/></g><path class="cls-35" d="M558.78,447.69c2.18-1.29,7.03-3.32,8.67-5.17,0,0,2.5,3.33,5.33,4.33,0,0-1-3.17,1-4,0,0,2.83.83,4.5,3,0,0,1.5-1.67,1.5-3.5,0,0,3.5,4.5,7.83,5.33,0,0-13.78-20.67-8.45-66.45l-.44-20.45-18.22,2,4,17.11s9.11,33.78-5.72,67.78h0Z"/><path class="cls-26" d="M666.51,382.35c-26.73,6.67-39.5-4.89-39.5-4.89,11.97-.44,14.36-8.45,17.15-8-16.36-7.56-22.34-19.56-22.34-19.56,6.38,2.22,11.97-.44,11.97-.44-4.39-3.56-3.99-8.45-3.99-8.45,15.96,4.89,28.33-4.89,28.33-4.89-27.93-2.67-38.3-23.11-38.3-23.11,17.95,5.78,31.52-4.44,31.52-4.44-17.55-1.33-29.12-16-29.12-16,10.37-.44,13.56-7.11,13.56-7.11-2.79,0-6.38-3.56-6.38-3.56,12.77-.89,16.76-6.22,16.76-6.22-52.26-19.56-73.01-62.67-73.01-62.67l-.1,3.21-.1-3.21s-20.75,43.12-73.01,62.67c0,0,3.99,5.33,16.76,6.22,0,0-3.59,3.56-6.38,3.56,0,0,3.19,6.67,13.56,7.11,0,0-11.57,14.67-29.12,16,0,0,13.56,10.22,31.52,4.44,0,0-10.37,20.45-38.3,23.11,0,0,12.37,9.78,28.33,4.89,0,0,.4,4.89-3.99,8.45,0,0,5.59,2.67,11.97.44,0,0-5.98,12-22.34,19.56,2.79-.44,5.19,7.56,17.15,8,0,0-12.77,11.56-39.5,4.89,0,0,30.18,21.85,93.45,11.21,63.28,10.64,93.45-11.21,93.45-11.21Z"/><g class="cls-31"><path d="M547.28,322.68c-.74,13.15-3.15,29.4-11.51,40.02,0,0-1.3-2.55-1.3-2.55.87-.1,1.81-.27,2.71-.43,2.58-.48,5.43-1.19,7.62-2.44,0,0,2.92-1.68,2.92-1.68-1.07,11.7-7.38,22.94-17.66,28.84,0,0-1.83,1.04-1.83,1.04,0,0,.2-2.12.2-2.12.27.23.81.55,1.26.8,7.71,3.87,16.79,4.12,25.27,4.19-4.55.67-9.51,1.06-14.09.75-5.4-.39-11.16-1.3-15.52-4.82,2.73-1.73,5.58-3.45,7.9-5.7,4.73-4.39,8.14-10.2,9.91-16.4.36-1.22.67-2.54.85-3.69l2.44,1.6c-4.83,2.6-10.26,3.02-15.59,3.49,0,0,2.61-2.91,2.61-2.91,4.34-5.02,6.84-11.59,8.91-17.91,2.1-6.55,3.64-13.3,4.92-20.08h0Z"/></g><g class="cls-31"><path class="cls-10" d="M587.95,256.01c1.17,17.3,10.15,33.5,23.1,44.78,0,0,2.23,2.08,2.23,2.08-6.27,1.8-13.04,2.34-19.29.19,0,0,2.41-2.16,2.41-2.16,2.72,9.6,6.72,19.03,12.41,27.25,2.61,3.8,6.07,7.17,9.43,10.27,0,0-4,.49-4,.49-7.67.83-15.57-1.55-21.41-6.59,0,0,2.84-1.48,2.84-1.48.5,4.66,1.41,9.47,2.61,14.11,3.65,13.92,10.02,27.73,21.34,37.06-2.02-1.38-3.99-2.85-5.79-4.53-12.67-12.04-19.07-29.28-21.6-46.31,0,0-.51-4.07-.51-4.07,0,0,3.35,2.59,3.35,2.59,4.51,3.73,10.38,5.57,16.21,5.55.81,0,1.7-.05,2.39-.14l-1,3.33c-11.17-10.52-17.13-25.26-20.63-39.93,0,0,3.21,1.11,3.21,1.11,3.4,1.25,7.11,1.56,10.72,1.29,1.21-.09,2.49-.27,3.59-.49l-.7,2.81-2.36-2.38c-11.63-11.73-19.12-28.19-18.55-44.84h0Z"/></g><g class="cls-31"><path d="M569.95,236.34c-7.72,14.71-18.64,30.18-33.69,38.05,0,0,.35-2.53.35-2.53.7.55,1.63,1.14,2.52,1.6,3.23,1.8,6.94,2.38,10.59,2.31,0,0-.17,1.7-.17,1.7-.94,8.38-4.78,16.53-11.21,22.05-2.11,1.9-4.61,3.26-7.12,4.5,0,0-1.16-2.7-1.16-2.7,2.49-.68,4.33.71,6.61,1.06,2.44.62,5.13.72,7.66.77,0,0-.98,1.85-.98,1.85-3.62,7.75-7.61,15.55-13.65,21.72-2.03,2.05-4.27,3.89-6.76,5.31,7.99-6.04,12.63-15.25,16.51-24.25.39-.96,1.07-2.54,1.45-3.47,0,0,.29-.59.29-.59l1.08,1.91c-3.52.16-7.11-.66-10.47-1.54-.4-.09-.67-.04-.65-.03l-1.16-2.7c2.24-1.19,4.45-2.46,6.28-4.2,5.72-4.99,9.08-12.47,10.05-19.92,0,0,1.61,1.74,1.61,1.74-5.68,0-11.02-2.46-15.15-6.32,0,0,2.17-1.02,2.17-1.02,14.81-7.41,25.78-21.85,34.99-35.29h0Z"/></g><path class="cls-35" d="M626.67,571.1l-9.37,1.15-9.37,1.11-9.37,1.09-9.38,1.05-9.38,1.04-9.38,1.01-18.77,1.99c-3.13.34-6.26.64-9.39.96l-9.39.95-18.77,1.89-18.78,1.81-18.78,1.76-1.08.1-.88-.69-18.14-14.34-18.09-14.4-5.63-4.48,7.16-.65,17.74-1.61,17.74-1.57,17.75-1.54,17.75-1.49c5.92-.48,11.83-.99,17.76-1.44l17.76-1.39,8.88-.7,8.88-.66,17.77-1.3.54-.04.41.27c3.68,2.47,7.32,4.98,10.99,7.47l10.97,7.49,10.94,7.54,5.45,3.79,5.44,3.81ZM626.67,571.1l-5.71-3.4-5.7-3.42-11.36-6.88-11.33-6.93c-3.77-2.32-7.56-4.61-11.32-6.95l.95.23-17.71,1.97-8.85.98-8.86.94-17.72,1.88c-5.9.64-11.81,1.22-17.72,1.83l-17.73,1.77-17.73,1.73-17.73,1.69-17.74,1.66,1.53-5.13,18.06,14.45,18.01,14.5-1.96-.59,18.81-1.5,18.81-1.45,18.82-1.38,9.41-.69c3.14-.23,6.27-.47,9.41-.67l18.83-1.28,9.42-.62,9.42-.59,9.42-.59,9.42-.54,9.42-.53,9.43-.48Z"/><path class="cls-35" d="M434.13,554.69c.16.98.31,1.95.46,2.93.15.98.3,1.95.43,2.93l.41,2.93c.13.98.28,1.96.4,2.93.25,1.96.5,3.92.74,5.87.24,1.96.46,3.92.69,5.88l.64,5.88.6,5.88c.2,1.96.38,3.92.57,5.88.19,1.96.36,3.92.53,5.89l-.8-1.69c1.66,1.46,3.31,2.92,4.95,4.39l4.93,4.42,4.9,4.44,4.87,4.47c1.63,1.49,3.25,2.99,4.86,4.49l4.84,4.52,4.81,4.55c1.6,1.51,3.19,3.05,4.78,4.57l-4.48,1.96c.03-2.08.09-4.16.15-6.24.05-2.08.11-4.16.19-6.24.07-2.08.14-4.16.24-6.24.08-2.08.18-4.16.29-6.24.1-2.08.22-4.16.34-6.24l.19-3.12.21-3.12c.08-1.04.14-2.08.23-3.12l.25-3.12c.08-1.04.17-2.08.27-3.12.1-1.04.19-2.08.31-3.12.12,1.04.21,2.08.31,3.12.1,1.04.19,2.08.27,3.12l.25,3.12c.09,1.04.15,2.08.23,3.12l.21,3.12.19,3.12c.12,2.08.24,4.16.34,6.24.11,2.08.2,4.16.29,6.24.09,2.08.17,4.16.24,6.24.08,2.08.14,4.16.19,6.24.06,2.08.11,4.16.15,6.24l.1,6.06-4.58-4.11c-1.64-1.47-3.3-2.93-4.93-4.42l-4.9-4.44-4.87-4.47c-1.63-1.49-3.24-2.99-4.85-4.5l-4.84-4.52-4.81-4.55-4.78-4.57c-1.6-1.52-3.18-3.06-4.76-4.6l-.77-.75-.04-.95c-.07-1.97-.15-3.94-.21-5.91-.06-1.97-.13-3.94-.17-5.91l-.13-5.91-.09-5.91c-.02-1.97-.05-3.94-.05-5.92-.01-1.97,0-3.95,0-5.92,0-.99.02-1.97.03-2.96l.04-2.96c0-.99.04-1.98.06-2.96.02-.99.05-1.98.09-2.97Z"/><path class="cls-35" d="M626.67,572.64c.17,2.16.29,4.33.44,6.49l.37,6.49c.13,2.16.22,4.33.33,6.49l.29,6.49.26,6.49.22,6.49.2,6.49.17,6.49.05,1.96-2.05.3c-3.05.45-6.1.92-9.16,1.35-3.05.43-6.11.89-9.16,1.3l-9.17,1.26-9.17,1.21-9.18,1.16c-3.06.4-6.12.75-9.18,1.13-3.06.37-6.12.74-9.19,1.09-3.06.35-6.13.72-9.19,1.05l-9.2,1-9.2.96-9.21.9c-3.07.28-6.14.59-9.22.85-3.07.27-6.15.54-9.22.79-3.08.26-6.15.49-9.23.73l-4.62.33-4.62.3c-3.08.21-6.17.38-9.26.53,3.03-.61,6.07-1.2,9.11-1.75l4.56-.84,4.56-.81c3.04-.52,6.08-1.05,9.13-1.55,3.04-.51,6.09-1,9.14-1.48,3.05-.5,6.1-.95,9.15-1.43l9.15-1.37,9.16-1.32,9.17-1.27c3.05-.43,6.11-.82,9.17-1.23,3.06-.41,6.12-.8,9.18-1.18,3.06-.38,6.12-.78,9.18-1.15l9.18-1.11,9.19-1.06,9.2-1.02c3.06-.35,6.13-.65,9.2-.98,3.07-.33,6.14-.62,9.21-.93l-2,2.26.17-6.49.2-6.49.22-6.49.26-6.49.29-6.49c.11-2.16.2-4.33.33-6.49l.37-6.49c.15-2.16.27-4.33.44-6.49Z"/><path class="cls-3" d="M491.66,549.57v-39.86c0-12.31,8.11-22.88,20.41-24.17,12.31-1.29,19.19,8.26,19.19,19.03v32.46"/><path class="cls-5" d="M457.84,561.87c2.69,2.31,15.96,15.19,20.77,15.38,4.81.19,26.73-2.31,36.73-2.5,10-.19,34.8-1.92,46.53-2.5,11.73-.58,35.38-3.46,41.53-3.27,6.15.19,12.31,0,11.15-1.73-1.15-1.73-12.5-7.31-18.46-10.96-5.96-3.65-10.77-8.46-15.96-8.85-5.19-.38-34.03,2.31-43.26,4.23-9.23,1.92-39.23,2.69-48.65,3.85-9.42,1.15-28.27,1.92-30.19,3.46s-.19,2.88-.19,2.88Z"/><path class="cls-5" d="M527.84,540.91s3.27,8.46.19,15.19c-3.08,6.73-20,9.04-20,9.04,0,0,4.81,4.23,11.92,3.65,7.11-.58,14.61-3.46,20.38-3.08,5.77.38,11.15-.58,16.15-.96,5-.38,13.46-1.35,13.46-1.35,0,0-4.61-1.92-9.23-7.88-4.61-5.96-6.54-20.19-6.54-20.19l-26.34,5.58Z"/><g class="cls-11"><path class="cls-10" d="M534.18,540.91s.14.36.3,1c.16.64.36,1.58.48,2.71.06.57.11,1.19.11,1.85.02.66-.01,1.36-.07,2.08-.07.72-.16,1.46-.33,2.21-.15.75-.38,1.5-.63,2.24-.29.73-.59,1.46-.98,2.13-.1.17-.19.34-.29.5-.11.16-.21.32-.32.48-.2.32-.45.61-.68.9-.23.29-.49.55-.73.81-.25.25-.52.48-.77.7-.52.43-1.04.79-1.55,1.08-.25.16-.49.29-.73.39-.24.11-.46.22-.68.31-.44.16-.82.3-1.14.39-.65.16-1.02.24-1.02.24,0,0,.33-.2.9-.52.28-.16.61-.4.99-.63.19-.12.37-.28.57-.42.1-.07.2-.15.31-.23.1-.08.2-.17.31-.26.42-.34.84-.75,1.27-1.2.2-.24.42-.46.62-.71.19-.26.41-.5.59-.78.38-.55.74-1.13,1.05-1.75.33-.62.6-1.28.85-1.94.24-.67.46-1.36.62-2.05.18-.69.31-1.38.43-2.05.11-.67.21-1.33.27-1.96.07-.63.12-1.22.16-1.78.03-.55.06-1.06.07-1.52,0-.46.02-.85.03-1.18,0-.66,0-1.04,0-1.04Z"/></g><g class="cls-11"><path class="cls-10" d="M549.37,541.68s0,.36.03.98c.03.62.07,1.5.17,2.55.05.52.12,1.08.2,1.67.09.59.19,1.21.32,1.84.12.63.29,1.28.46,1.92.19.64.39,1.29.64,1.92l.18.47.2.46c.13.31.28.61.43.91.15.3.32.58.47.87.17.28.34.55.5.82.18.26.36.52.53.77.19.24.37.48.55.71.19.22.38.44.56.65.18.21.38.4.55.58.17.19.37.35.54.51.17.16.33.33.5.46.33.26.61.52.85.71.49.37.77.6.77.6,0,0-.34-.11-.93-.34-.29-.12-.64-.29-1.03-.49-.38-.22-.83-.46-1.27-.78-.22-.16-.46-.33-.69-.51-.23-.2-.46-.4-.7-.6-.23-.22-.45-.46-.69-.7-.22-.25-.44-.51-.66-.78-.21-.28-.42-.56-.62-.86-.19-.3-.39-.6-.56-.93-.35-.64-.67-1.31-.93-2-.27-.69-.47-1.4-.65-2.1-.16-.71-.29-1.4-.36-2.09-.16-1.36-.15-2.64-.05-3.72.04-.54.11-1.03.18-1.47.07-.43.15-.81.23-1.11.15-.61.28-.95.28-.95Z"/></g><g class="cls-11"><path class="cls-10" d="M538.41,555.91s.05.2.05.56c0,.18,0,.4-.04.64-.02.25-.08.52-.15.83-.08.29-.18.62-.32.94-.13.33-.3.66-.48,1-.09.17-.2.33-.31.5-.11.16-.21.34-.34.49-.25.31-.5.64-.79.93-.29.28-.57.59-.88.83-.15.13-.31.25-.46.37-.15.12-.31.24-.47.34-.32.21-.62.4-.92.57-.31.16-.6.3-.87.42-.14.06-.27.12-.39.17-.13.04-.25.09-.37.13-.23.08-.44.14-.61.19-.34.1-.54.13-.54.13,0,0,.14-.16.39-.4.13-.12.27-.27.45-.43.18-.16.37-.34.58-.54.21-.2.44-.41.69-.62.24-.22.48-.46.74-.7.27-.23.51-.5.78-.75.27-.25.51-.52.77-.78.13-.13.26-.26.38-.4.12-.14.25-.27.37-.4.23-.28.46-.55.68-.81.2-.27.42-.53.6-.79.19-.25.35-.51.51-.74.15-.24.3-.45.41-.66.12-.2.22-.38.3-.53.16-.3.24-.49.24-.49Z"/></g><g class="cls-11"><path class="cls-10" d="M542.64,547.84s.05.25.11.69c.06.44.14,1.05.23,1.79.08.73.17,1.59.27,2.5.05.45.1.92.15,1.4.05.47.1.96.17,1.43.05.48.12.95.19,1.42.04.23.07.46.11.69.04.23.08.45.12.67.08.44.17.86.26,1.26.09.4.19.77.3,1.11.1.34.22.65.32.92.06.13.12.26.16.38.06.12.11.22.16.32.09.2.19.34.25.44.06.1.09.16.09.16,0,0-.05-.03-.15-.1-.09-.07-.26-.15-.42-.31-.09-.08-.18-.16-.28-.25-.1-.1-.19-.21-.3-.33-.2-.24-.43-.53-.63-.86-.42-.66-.79-1.5-1.08-2.42-.29-.92-.49-1.92-.62-2.93-.25-2.02-.16-4.04.05-5.53.11-.75.24-1.37.35-1.79.11-.43.2-.67.2-.67Z"/></g><g class="cls-11"><path class="cls-10" d="M546.49,555.72s.38.66.94,1.64c.14.24.28.5.44.77.15.27.33.55.5.84.17.29.37.58.54.88.2.28.38.59.59.87.21.28.4.58.62.84.11.13.21.27.31.41.1.14.22.25.33.38.11.13.21.25.31.37.1.12.22.22.32.34.21.22.4.45.61.62.2.18.38.36.54.52.18.13.33.27.45.38.25.22.4.36.4.36,0,0-.19-.02-.53-.09-.17-.03-.38-.07-.61-.14-.22-.08-.48-.18-.75-.3-.28-.11-.55-.28-.84-.46-.14-.09-.3-.18-.44-.29-.14-.11-.28-.23-.42-.35-.3-.23-.56-.51-.83-.8-.28-.28-.5-.61-.74-.92-.23-.32-.42-.67-.62-1-.17-.35-.35-.68-.48-1.03-.28-.68-.45-1.34-.56-1.91-.1-.58-.14-1.06-.14-1.4,0-.34.03-.54.03-.54Z"/></g><g class="cls-11"><path class="cls-10" d="M555.91,549.18s.03.06.08.16c.05.1.13.25.23.44.11.18.23.41.38.65.15.25.33.52.53.81.09.15.21.29.32.44.12.15.22.31.36.46.13.15.26.31.39.47.13.16.29.3.43.46.28.32.62.61.94.92.15.16.35.28.52.43.18.14.35.29.53.43.38.25.74.54,1.12.78.39.22.76.48,1.14.69.39.2.76.4,1.11.6.37.17.72.33,1.04.49.16.08.32.16.46.23.15.07.29.12.43.18.27.11.51.22.7.31.39.18.62.3.62.3,0,0-.25.01-.68,0-.22,0-.48-.01-.78-.04-.15-.01-.31-.02-.48-.04-.17-.03-.34-.06-.53-.09-.37-.07-.77-.15-1.19-.25-.41-.13-.84-.28-1.29-.45-.23-.07-.44-.2-.66-.3-.22-.11-.44-.22-.66-.34-.44-.23-.85-.55-1.28-.83-.39-.33-.8-.65-1.15-1.01-.34-.37-.69-.73-.96-1.13-.14-.2-.29-.38-.4-.58-.12-.2-.23-.4-.34-.59-.21-.39-.37-.77-.5-1.12-.06-.18-.12-.35-.17-.52-.05-.17-.08-.33-.12-.48-.08-.29-.1-.57-.13-.78-.04-.44-.02-.69-.02-.69Z"/></g><g class="cls-11"><path class="cls-10" d="M515.34,558.99s-.07.05-.2.15c-.13.09-.32.23-.58.39-.25.16-.56.36-.93.56-.36.2-.78.43-1.24.66-.46.23-.96.47-1.51.7-.54.24-1.12.45-1.73.68-.61.21-1.24.43-1.89.62-.65.19-1.31.38-1.98.53-.33.08-.67.15-1,.23-.34.06-.67.13-1,.19-.66.13-1.32.21-1.96.29-.64.09-1.26.13-1.85.17-.29.02-.58.03-.86.05-.28,0-.55,0-.8,0-.51,0-.99,0-1.4-.02-.42-.02-.78-.06-1.08-.08-.6-.05-.94-.1-.94-.1,0,0,.34-.09.92-.2.29-.06.65-.13,1.05-.2.41-.08.86-.18,1.36-.27.5-.09,1.03-.2,1.6-.32.57-.12,1.16-.22,1.78-.36.61-.13,1.25-.26,1.89-.41.64-.14,1.3-.28,1.94-.45.65-.14,1.3-.32,1.94-.47.64-.16,1.27-.32,1.88-.48,1.22-.33,2.35-.64,3.32-.9,1.96-.56,3.27-.93,3.27-.93Z"/></g><g class="cls-11"><path class="cls-10" d="M560.72,558.99s1.1.36,2.75.91c.41.13.85.27,1.32.42.47.14.96.3,1.47.45.26.08.51.16.78.24.26.07.53.15.8.22.54.16,1.09.3,1.63.45.54.16,1.1.27,1.64.43.54.13,1.08.26,1.6.39.52.13,1.02.23,1.5.34.48.12.93.21,1.35.31.42.08.81.2,1.15.26.35.07.65.14.9.2.5.12.78.2.78.2,0,0-.29.05-.8.1-.26.03-.57.06-.93.09-.36.03-.76.03-1.2.03-.44,0-.92.01-1.42-.04-.5-.04-1.04-.07-1.58-.15-.54-.08-1.11-.15-1.68-.27-.57-.12-1.14-.24-1.71-.4-.57-.16-1.14-.31-1.68-.51-.55-.18-1.08-.38-1.59-.6-.51-.2-.99-.44-1.45-.66-.45-.23-.87-.46-1.25-.68-.38-.22-.72-.44-1.02-.64-.3-.19-.55-.39-.75-.54-.41-.32-.62-.53-.62-.53Z"/></g><g class="cls-11"><path class="cls-10" d="M521.68,564.37s-.1.05-.3.15c-.2.09-.48.24-.86.4-.75.33-1.84.76-3.18,1.16-.67.2-1.41.41-2.19.58-.79.17-1.62.35-2.5.47-.44.07-.88.12-1.33.17-.45.06-.91.09-1.38.11-.45.03-.9.06-1.36.09-.46.03-.88.1-1.32.14-.44.07-.89.13-1.33.2-.44.09-.89.15-1.32.25-.87.19-1.74.36-2.57.58-.84.21-1.64.42-2.41.61-.77.2-1.5.38-2.18.54-.68.17-1.3.3-1.87.4-.56.11-1.05.18-1.46.22-.2.02-.39.04-.54.05-.16,0-.3,0-.41.01-.22,0-.34,0-.34,0,0,0,.11-.03.32-.09.1-.03.23-.06.38-.11.15-.05.32-.11.51-.17.38-.12.84-.3,1.37-.49.52-.2,1.12-.43,1.76-.68.65-.25,1.35-.53,2.1-.8.75-.27,1.54-.57,2.38-.82.84-.26,1.71-.52,2.61-.73.45-.11.91-.2,1.37-.29.46-.08.93-.15,1.4-.23.48-.05.97-.11,1.43-.14.47-.02.91-.04,1.39-.06.89-.03,1.77-.05,2.62-.13.85-.07,1.67-.15,2.45-.25.78-.1,1.52-.21,2.2-.31.68-.12,1.3-.22,1.86-.32.55-.11,1.04-.19,1.43-.27.8-.17,1.25-.26,1.25-.26Z"/></g><g class="cls-11"><path class="cls-10" d="M472.65,562.26s.09.05.26.13c.17.09.43.18.76.29.34.1.74.21,1.22.29.12.02.24.04.37.06.13.01.26.03.39.04.27.04.55.05.84.07.59.03,1.22.02,1.9-.01.67-.04,1.38-.13,2.1-.24.73-.12,1.47-.25,2.23-.44.75-.17,1.54-.38,2.31-.58,1.56-.41,3.11-.82,4.57-1.2.74-.19,1.46-.36,2.16-.49.7-.14,1.37-.22,1.99-.27.62-.05,1.18-.07,1.68-.07.5,0,.93.02,1.29.03.71.04,1.12.08,1.12.08,0,0-.4.09-1.1.23-.7.15-1.69.33-2.86.61-.58.14-1.2.32-1.85.51-.65.2-1.33.45-2.05.69-.72.24-1.47.49-2.23.72-.77.24-1.55.45-2.35.66-.79.19-1.56.4-2.38.55-.4.08-.8.16-1.2.2-.4.05-.79.12-1.18.13-.78.07-1.54.07-2.26.03-.72-.04-1.4-.13-2.01-.26-.31-.07-.6-.13-.88-.22-.14-.04-.27-.08-.4-.13-.13-.05-.25-.1-.37-.14-.48-.18-.87-.4-1.18-.58-.62-.39-.89-.7-.89-.7Z"/></g><g class="cls-11"><path class="cls-10" d="M568.98,554.57s.3.15.83.36c.26.11.59.22.97.34.37.12.8.23,1.26.36.23.05.48.1.73.15.25.04.51.09.78.13.54.07,1.1.13,1.68.14.58.02,1.18,0,1.79-.06.31-.03.63-.06.95-.1.32-.04.65-.07.99-.09.68-.05,1.35-.07,2.01-.05.66,0,1.32.06,1.94.12,1.26.14,2.41.4,3.37.7.48.14.91.3,1.29.45.38.15.7.29.97.41.53.24.82.41.82.41,0,0-.33-.04-.91-.11-.57-.08-1.39-.19-2.35-.29-.48-.05-1.01-.09-1.56-.13-.55-.04-1.13-.06-1.73-.08-.6,0-1.22,0-1.84,0-.63.02-1.27.04-1.9.09-.31.02-.64.04-.96.07-.16.01-.33.03-.48.04l-.51.03c-.34.03-.68.02-1.01,0-.33,0-.66-.04-.98-.08-.64-.07-1.25-.21-1.82-.37-.28-.08-.55-.18-.81-.27-.26-.11-.5-.2-.74-.31-.47-.21-.87-.44-1.22-.66-.35-.21-.64-.43-.87-.61-.23-.18-.4-.34-.51-.45-.11-.11-.17-.17-.17-.17Z"/></g><g class="cls-11"><path class="cls-10" d="M519.18,571.1s.46-.25,1.29-.6c.42-.17.93-.38,1.53-.59.6-.21,1.28-.44,2.03-.64.75-.21,1.58-.42,2.46-.59.44-.09.9-.17,1.36-.24.47-.08.95-.13,1.44-.18.49-.06.99-.08,1.5-.11.51-.04,1.03-.02,1.55-.02.52,0,1.05.06,1.58.09.53.05,1.03.11,1.55.16,1.04.14,2.06.3,3.07.46,1.01.16,1.98.36,2.93.51.94.15,1.85.31,2.71.42.86.1,1.68.18,2.43.2.76.02,1.45.01,2.07-.03.31-.03.6-.05.87-.07.27-.03.51-.07.74-.09.45-.05.79-.13,1.03-.17.24-.04.37-.06.37-.06,0,0-.12.05-.34.15-.23.08-.55.25-.99.38-.22.07-.46.15-.72.23-.26.08-.56.14-.87.22-.62.14-1.34.26-2.13.33-.39.04-.8.05-1.23.07-.42,0-.87,0-1.32-.02-.9-.03-1.85-.11-2.82-.22-.97-.12-1.96-.23-2.96-.39-1-.15-2.01-.28-3.02-.41-.5-.06-1.03-.13-1.52-.18-.5-.03-.99-.1-1.48-.11-.98-.03-1.96-.06-2.9,0-.24.01-.47.02-.7.03-.23.02-.46.03-.69.05-.46.03-.9.07-1.33.12-.87.09-1.69.2-2.44.31-1.51.23-2.77.48-3.66.67-.44.1-.79.17-1.02.23-.24.06-.36.08-.36.08Z"/></g><g class="cls-11"><path class="cls-10" d="M563.02,566.49s.38.07,1.05.2c.66.12,1.61.27,2.74.41,1.13.13,2.45.24,3.85.24.7,0,1.42-.03,2.14-.09.72-.07,1.45-.17,2.16-.32.75-.16,1.5-.32,2.23-.48.74-.16,1.47-.3,2.19-.43,1.43-.26,2.79-.46,3.97-.5.59-.03,1.13-.02,1.61.02.48.03.89.09,1.23.15.34.05.6.12.78.16.18.05.27.07.27.07,0,0-.1,0-.28.02-.18,0-.45.03-.78.05-.33.03-.74.07-1.2.13-.46.06-.97.16-1.52.27-.55.12-1.15.27-1.78.43-.63.17-1.3.34-2,.53-.69.18-1.41.38-2.15.56-.74.19-1.47.37-2.25.53-.4.07-.79.16-1.19.2-.4.04-.8.09-1.19.1-.79.04-1.56.02-2.3-.04-1.48-.12-2.84-.41-3.97-.74-1.13-.32-2.04-.69-2.66-.98-.62-.28-.96-.49-.96-.49Z"/></g><g class="cls-11"><path class="cls-10" d="M479.38,572.83s.39.03,1.08.09c.68.05,1.66.12,2.82.19,1.16.06,2.51.11,3.95.11.72,0,1.46-.02,2.2-.06.19-.01.37-.02.56-.03l.56-.05.56-.05.58-.07c.77-.09,1.54-.17,2.29-.26.76-.09,1.51-.18,2.23-.26,1.45-.16,2.83-.29,4.02-.31.59-.02,1.14,0,1.62.02.48.03.9.07,1.25.11.34.03.61.09.79.12.18.03.28.05.28.05,0,0-.39.05-1.07.13-.34.04-.75.11-1.22.17-.47.08-.99.17-1.56.27-1.14.23-2.48.49-3.91.78-.72.14-1.47.27-2.23.39-.76.12-1.56.22-2.33.31l-.58.06-.6.05c-.4.04-.8.05-1.19.05-.39.01-.79,0-1.17,0-.39,0-.76-.03-1.14-.06-.74-.05-1.46-.14-2.13-.24-.67-.1-1.31-.23-1.89-.35-.58-.12-1.11-.26-1.57-.39-.46-.13-.86-.26-1.19-.37-.65-.22-1.02-.39-1.02-.39Z"/></g><path class="cls-35" d="M546.93,515.4c-6.39-4.79-24.85-16.51-28.22-18.28-.2-.11-.4-.2-.6-.3-1.61-.92-3.46-1.46-5.44-1.47-.05,0-.08,0-.08,0-6.13,0-11.09,4.97-11.09,11.09,0,2.47.81,4.75,2.18,6.6.27.62.56,1.13.84,1.48,1.6,1.95,7.1,3.55,12.42,6.03,5.32,2.48,5.32,19.52,5.32,19.52,0,0,7.99,6.39,19.52,6.39s18.1-8.16,18.1-8.16c-1.6-8.34-6.57-18.1-12.96-22.9Z"/><path class="cls-20" d="M503.93,604.48v-4.4c2.04-.31,3.46-.59,4.28-.86,1.3-.42,2.36-1.11,3.17-2.06.56-.65.98-1.48,1.27-2.49.17-.61.25-1.06.25-1.34l5.4-.57v32.92l-6.63.7v-22.71l-7.74.81Z"/><path class="cls-20" d="M526.48,594.9c2.04-2.4,4.68-3.77,7.94-4.11,5.01-.53,8.45,1.33,10.31,5.57,1.06,2.4,1.59,5.65,1.59,9.76s-.51,7.36-1.52,10.13c-1.94,5.27-5.49,8.18-10.67,8.73-2.47.26-4.68-.24-6.65-1.49-1.97-1.25-3.1-3.27-3.38-6.04l6.45-.68c.15.95.56,1.7,1.23,2.23.67.54,1.55.75,2.66.63,2.13-.22,3.63-1.56,4.5-4.01.47-1.35.76-3.28.89-5.79-.59.8-1.22,1.44-1.88,1.9-1.21.85-2.7,1.37-4.47,1.56-2.62.28-4.94-.38-6.97-1.98-2.03-1.6-3.04-4.1-3.04-7.5s1.02-6.49,3.05-8.89ZM537.37,606.82c1.47-1.09,2.2-2.8,2.2-5.11,0-1.86-.44-3.29-1.31-4.29-.87-1-2.06-1.42-3.58-1.26-1.1.12-2.05.53-2.84,1.23-1.24,1.1-1.86,2.81-1.86,5.12,0,1.95.4,3.38,1.19,4.27.79.89,2.02,1.25,3.67,1.08.89-.09,1.73-.44,2.52-1.04Z"/><path class="cls-20" d="M555.58,612.95c.26,1.38.75,2.42,1.47,3.1.72.69,1.78.96,3.17.81,1.6-.17,2.82-.86,3.66-2.08s1.26-2.68,1.26-4.39-.39-3.06-1.18-4.13c-.79-1.08-2.01-1.53-3.67-1.35-.79.08-1.46.25-2.04.51-1.01.47-1.77,1.22-2.29,2.26l-5.8.34,2.31-18.43,18.11-1.9v5.5l-13.45,1.41-1.18,7.32c1-.76,1.78-1.27,2.34-1.54.94-.45,2.08-.74,3.42-.88,2.72-.29,5.09.38,7.12,2,2.03,1.62,3.04,4.18,3.04,7.67,0,3.04-.98,5.86-2.93,8.46-1.95,2.6-4.87,4.1-8.76,4.51-3.13.33-5.7-.24-7.71-1.71-2.01-1.47-3.13-3.74-3.36-6.8l6.45-.68Z"/><path class="cls-20" d="M595.39,588.85c1.69,2.77,2.53,6.88,2.53,12.31s-.84,9.71-2.53,12.82c-1.69,3.11-4.63,4.89-8.82,5.33-4.19.44-7.13-.72-8.82-3.48-1.69-2.76-2.53-6.86-2.53-12.29s.84-9.72,2.53-12.84c1.69-3.13,4.63-4.91,8.82-5.35s7.13.73,8.82,3.5ZM582.75,611.44c.62,1.94,1.89,2.81,3.81,2.61,1.92-.2,3.18-1.34,3.78-3.41.6-2.07.9-5,.9-8.78s-.3-6.87-.9-8.72c-.6-1.84-1.86-2.67-3.78-2.46-1.92.2-3.19,1.29-3.81,3.26-.62,1.97-.93,4.94-.93,8.91s.31,6.65.93,8.59Z"/><polygon class="cls-35" points="486.3 640.6 487.84 604.18 491.68 640.43 486.3 640.6"/><polygon class="cls-35" points="500.14 584.07 498.99 622.06 494.76 584.29 500.14 584.07"/><polygon class="cls-35" points="602.83 625.99 604.17 585.52 608.21 625.81 602.83 625.99"/><polygon class="cls-35" points="616.29 572.18 614.56 608.41 610.9 572.33 616.29 572.18"/><polygon class="cls-35" points="443.61 609.05 444.77 576.68 449 608.92 443.61 609.05"/><polygon class="cls-35" points="457.84 569.32 455.73 602.06 452.46 569.42 457.84 569.32"/><polygon class="cls-35" points="461.31 626.19 463.23 603.41 466.69 626 461.31 626.19"/><path class="cls-12" d="M603.45,649.85s-11.92,1.41-16.74-12.95c-4.82-14.36,14.75-16.58,20.08-15.13,5.33,1.45,9.06,13.31,4.54,23.1-4.53,9.8-7.87,4.98-7.87,4.98Z"/><path class="cls-44" d="M610.21,649.63s-2.18-11.81,11.84-17.55c14.02-5.74,17.51,13.64,16.41,19.05-1.1,5.41-12.69,9.91-22.76,6.03-10.07-3.88-5.48-7.53-5.48-7.53Z"/><path class="cls-4" d="M597.89,652.72s-1,11.97-16.04,13.81c-15.04,1.85-13.3-17.77-10.81-22.7,2.49-4.93,14.85-6.22,23.55.18,8.69,6.39,3.3,8.71,3.3,8.71Z"/><path class="cls-18" d="M605.85,660s10.11,6.48,4.71,20.64c-5.4,14.16-21.92,3.45-25.12-1.05-3.2-4.5,1.45-16.03,11.16-20.73,9.72-4.7,9.24,1.15,9.24,1.15Z"/><path class="cls-15" d="M611.21,657.55s9.76-6.99,20.92,3.26c11.15,10.25-4.91,21.64-10.28,22.94-5.37,1.3-14.36-7.28-15.12-18.05s4.49-8.16,4.49-8.16Z"/><circle class="cls-34" cx="606.31" cy="654.1" r="13.27"/><path class="cls-33" d="M438.37,625.93s-11.71-2.66-11.45-17.81c.26-15.15,19.44-10.7,23.98-7.55,4.54,3.15,4.09,15.57-3.45,23.29-7.54,7.72-9.08,2.06-9.08,2.06Z"/><path class="cls-48" d="M444.81,627.98s1.89-11.86,17.02-12.58c15.13-.73,11.94,18.7,9.09,23.44s-15.27,5.1-23.47-1.93c-8.2-7.02-2.65-8.93-2.65-8.93Z"/><path class="cls-29" d="M432.17,626.77s-4.95,10.94-19.74,7.66c-14.79-3.29-6.59-21.19-2.6-25.01,3.99-3.82,16.07-.89,22.13,8.04,6.06,8.93.2,9.31.2,9.31Z"/><path class="cls-13" d="M437.24,636.29s7.36,9.49-2.46,21.03c-9.82,11.54-21.81-4.08-23.32-9.39-1.51-5.31,6.72-14.63,17.45-15.81,10.73-1.18,8.33,4.17,8.33,4.17Z"/><path class="cls-7" d="M443.11,635.78s11.54-3.32,18.62,10.07c7.08,13.39-11.87,18.75-17.36,18.18-5.49-.57-11.1-11.66-8.22-22.06,2.88-10.4,6.96-6.19,6.96-6.19Z"/><circle class="cls-24" cx="439.65" cy="630.89" r="13.27"/><path class="cls-41" d="M719.36,577.73s-13.11-.67-15.67-17.03c-2.56-16.36,18.93-15.16,24.41-12.62,5.48,2.54,7.32,16,.65,25.73-6.68,9.73-9.39,3.92-9.39,3.92Z"/><path class="cls-1" d="M726.68,578.73s-.19-13.12,15.97-16.74c16.16-3.62,16.36,17.91,14.18,23.54-2.18,5.63-15.49,8.35-25.63,2.32-10.14-6.03-4.53-9.12-4.53-9.12Z"/><path class="cls-16" d="M712.83,579.8s-3.28,12.71-19.82,11.94c-16.54-.77-11.07-21.58-7.48-26.44,3.58-4.86,17.14-3.97,25.34,4.51,8.2,8.49,1.96,9.99,1.96,9.99Z"/><path class="cls-17" d="M720.07,589.1s9.7,8.84,1.29,23.1c-8.41,14.27-24.25-.3-26.87-5.74-2.62-5.44,4.5-17.01,15.83-20.29,11.33-3.28,9.75,2.93,9.75,2.93Z"/><path class="cls-19" d="M726.3,587.45s11.8-5.74,21.94,7.35c10.14,13.1-9.26,22.42-15.29,22.84-6.02.42-14.14-10.48-12.99-22.22,1.15-11.74,6.33-7.97,6.33-7.97Z"/><circle class="cls-14" cx="721.66" cy="582.83" r="14.5"/><path class="cls-46" d="M653.09,370.6s13.11-7.32,33.66-7.32,30.01,21.08,70.94,5.67v95.11s-9.78,7.04-30.75,7.04-28.93-19.15-73.41-5.94l-.44-94.56Z"/><rect class="cls-35" x="641.9" y="366.75" width="7.48" height="228.96"/><rect class="cls-30" x="641.9" y="366.75" width="2.38" height="228.96"/><path class="cls-10" d="M696.74,384.47s11.43-.55,20.67,3.41v18.93s9.24,1.98,18.48-1.76v21.58s-6.6,3.52-18.48,1.54v21.35s-11.88-4.18-21.12-4.18v-20.03s-13.2-1.76-17.82-.22v-20.47s8.98-1.76,18.93,1.1l-.66-21.24Z"/></g></svg>